SplineFontDB: 3.0
FontName: WallaWalla
FullName: WallaWalla Regular
FamilyName: WallaWalla
Weight: Book
Copyright: Copyright Garrett LeSage 2008
Version: 0.1
ItalicAngle: 0
UnderlinePosition: 122
UnderlineWidth: 49
Ascent: 800
Descent: 200
LayerCount: 2
Layer: 0 0 "Back"  1
Layer: 1 0 "Fore"  0
XUID: [1021 332 1867756345 9837773]
FSType: 4
OS2Version: 2
OS2_WeightWidthSlopeOnly: 0
OS2_UseTypoMetrics: 1
CreationTime: 1219682457
ModificationTime: 1220026828
PfmFamily: 81
TTFWeight: 400
TTFWidth: 5
LineGap: 0
VLineGap: 0
Panose: 0 0 4 0 0 0 0 0 0 0
OS2TypoAscent: -300
OS2TypoAOffset: 1
OS2TypoDescent: 75
OS2TypoDOffset: 1
OS2TypoLinegap: 0
OS2WinAscent: 0
OS2WinAOffset: 1
OS2WinDescent: 0
OS2WinDOffset: 1
HheadAscent: 0
HheadAOffset: 1
HheadDescent: 0
HheadDOffset: 1
OS2SubXSize: 500
OS2SubYSize: 500
OS2SubXOff: 0
OS2SubYOff: -62
OS2SupXSize: 500
OS2SupYSize: 500
OS2SupXOff: 0
OS2SupYOff: 500
OS2StrikeYSize: 50
OS2StrikeYPos: 199
OS2Vendor: 'FSTR'
OS2CodePages: 00000001.00000000
OS2UnicodeRanges: 80000001.00000000.00000000.00000000
Lookup: 258 0 0 "Pairwise Positioning (kerning) in Latin lookup 0"  {"Pairwise Positioning (kerning) in Latin lookup 0-1"  "Pairwise Positioning (kerning) in Latin lookup 0-2"  "Pairwise Positioning (kerning) in Latin lookup 0-3"  } ['def ' ('DFLT' <'dflt' > 'latn' <'dflt' > ) ]
DEI: 91125

StartChar: exclam
Encoding: 33 33 4
Width: 228
GlyphClass: 2
Flags: W
HStem: 0 145.7<88.3876 155.713>
VStem: 74 96.1<14.3876 137.341 256.188 670.54>
LayerCount: 2
Fore
SplineSet
122.05 0 m 0
 108.616 0 97.25 4.65039 87.9502 13.9502 c 0
 78.6504 23.25 74 34.6162 74 48.0498 c 2
 74 96.0996 l 2
 74 109.534 78.6504 120.9 87.9502 130.2 c 0
 97.25 140.534 108.616 145.7 122.05 145.7 c 0
 135.483 145.7 146.85 140.534 156.15 130.2 c 0
 165.45 120.9 170.1 109.534 170.1 96.0996 c 2
 170.1 48.0498 l 2
 170.1 34.6162 165.45 23.25 156.15 13.9502 c 0
 146.85 4.65039 135.483 0 122.05 0 c 0
122.05 241.8 m 0
 108.616 241.8 97.25 246.45 87.9502 255.75 c 0
 78.6504 265.05 74 276.934 74 291.399 c 2
 74 629.3 l 2
 74 642.732 78.6504 654.1 87.9502 663.399 c 0
 97.25 673.732 108.616 678.899 122.05 678.899 c 0
 135.483 678.899 146.85 673.732 156.15 663.399 c 0
 165.45 654.1 170.1 642.732 170.1 629.3 c 2
 170.1 291.399 l 2
 170.1 276.934 165.45 265.05 156.15 255.75 c 0
 146.85 246.45 135.483 241.8 122.05 241.8 c 0
EndSplineSet
EndChar

StartChar: quotedbl
Encoding: 34 34 5
Width: 483
GlyphClass: 2
Flags: W
HStem: 387.5 193.749
VStem: 96.1006 97.6494<483.6 571.789> 291.402 96.099<483.6 565.312>
LayerCount: 2
Fore
SplineSet
145.7 387.5 m 1
 96.1006 483.6 l 1
 96.1006 533.199 l 2
 96.1006 545.6 100.751 556.449 110.051 565.749 c 0
 119.351 576.083 131.233 581.249 145.7 581.249 c 0
 158.101 581.249 168.95 576.083 178.25 565.749 c 0
 188.584 556.449 193.75 545.6 193.75 533.199 c 2
 193.75 483.6 l 1
 145.7 387.5 l 1
339.451 387.5 m 1
 291.402 483.6 l 1
 291.402 533.199 l 2
 291.402 545.6 295.536 556.449 303.802 565.749 c 0
 313.102 576.083 324.984 581.249 339.451 581.249 c 0
 351.852 581.249 362.701 576.083 372.001 565.749 c 0
 382.335 556.449 387.501 545.6 387.501 533.199 c 2
 387.501 483.6 l 1
 339.451 387.5 l 1
EndSplineSet
EndChar

StartChar: numbersign
Encoding: 35 35 6
Width: 581
GlyphClass: 2
Flags: W
HStem: 193.75 97.65<14.3886 96.1006 193.75 291.4 387.499 469.211> 387.5 96.099<14.3886 96.1006 193.75 291.4 387.499 469.211>
VStem: 96.1006 97.6494<62.4374 193.75 291.4 387.499 483.599 619.838> 291.4 96.099<62.4374 193.75 291.4 387.499 483.599 619.838>
LayerCount: 2
Fore
SplineSet
291.4 291.4 m 1
 291.4 387.5 l 1
 193.75 387.5 l 1
 193.75 291.4 l 1
 291.4 291.4 l 1
145.7 48.0498 m 0
 131.233 48.0498 119.351 52.7002 110.051 62 c 0
 100.751 71.2998 96.1006 82.666 96.1006 96.0996 c 2
 96.1006 193.75 l 1
 48.0508 193.75 l 2
 34.6172 193.75 23.251 198.4 13.9512 207.7 c 0
 4.65137 217 0.000976562 228.366 0.000976562 241.8 c 0
 0.000976562 255.232 4.65137 266.6 13.9512 275.899 c 0
 23.251 286.232 34.6172 291.399 48.0508 291.399 c 2
 96.1006 291.399 l 1
 96.1006 387.499 l 1
 48.0508 387.499 l 2
 34.6172 387.499 23.251 392.149 13.9512 401.449 c 0
 4.65137 410.749 0.000976562 422.115 0.000976562 435.549 c 0
 0.000976562 448.981 4.65137 460.349 13.9512 469.648 c 0
 23.251 478.948 34.6172 483.599 48.0508 483.599 c 2
 96.1006 483.599 l 1
 96.1006 581.249 l 2
 96.1006 594.683 100.751 605.532 110.051 613.798 c 0
 119.351 624.132 131.233 629.298 145.7 629.298 c 0
 158.101 629.298 168.95 624.132 178.25 613.798 c 1
 188.584 605.532 193.75 594.683 193.75 581.249 c 2
 193.75 483.599 l 1
 291.4 483.599 l 1
 291.4 581.249 l 2
 291.4 594.683 295.534 605.532 303.8 613.798 c 0
 313.1 624.132 324.982 629.298 339.449 629.298 c 0
 351.85 629.298 362.699 624.132 371.999 613.798 c 1
 382.333 605.532 387.499 594.683 387.499 581.249 c 2
 387.499 483.599 l 1
 435.549 483.599 l 2
 448.981 483.599 460.349 478.948 469.648 469.648 c 0
 478.948 460.349 483.599 448.981 483.599 435.549 c 0
 483.599 422.115 478.948 410.749 469.648 401.449 c 0
 460.349 392.149 448.981 387.499 435.549 387.499 c 2
 387.499 387.499 l 1
 387.499 291.399 l 1
 435.549 291.399 l 2
 448.981 291.399 460.349 286.232 469.648 275.899 c 0
 478.948 266.6 483.599 255.232 483.599 241.8 c 0
 483.599 228.366 478.948 217 469.648 207.7 c 0
 460.349 198.4 448.981 193.75 435.549 193.75 c 2
 387.499 193.75 l 1
 387.499 96.0996 l 2
 387.499 82.666 382.333 71.2998 371.999 62 c 0
 362.699 52.7002 351.85 48.0498 339.449 48.0498 c 0
 324.982 48.0498 313.1 52.7002 303.8 62 c 0
 295.534 71.2998 291.4 82.666 291.4 96.0996 c 2
 291.4 193.75 l 1
 193.75 193.75 l 1
 193.75 96.0996 l 2
 193.75 82.666 188.584 71.2998 178.25 62 c 0
 168.95 52.7002 158.101 48.0498 145.7 48.0498 c 0
EndSplineSet
EndChar

StartChar: dollar
Encoding: 36 36 7
Width: 581
GlyphClass: 2
Flags: W
HStem: -96.0977 21G<235.083 248.516> -0.00195312 96.1006<14.3876 193.75 291.4 379.141> 291.398 96.104<110.489 193.75 291.4 378.04> 581.252 97.649<104.615 193.75 291.399 475.085>
VStem: 0 96.1006<401.889 572.893> 193.75 97.65<-81.714 -0.00195312 96.0996 291.398 387.502 581.252 678.901 765.541> 387.5 96.101<104.616 281.939>
LayerCount: 2
Fore
SplineSet
339.45 96.0996 m 2
 351.851 96.0996 362.7 100.752 372 110.052 c 0
 382.334 119.352 387.5 131.234 387.5 145.701 c 2
 387.5 241.801 l 2
 387.5 255.233 382.334 266.601 372 275.9 c 0
 362.7 286.233 351.851 291.4 339.45 291.4 c 2
 291.4 291.4 l 1
 291.4 96.0996 l 1
 339.45 96.0996 l 2
193.75 387.502 m 1
 193.75 581.252 l 1
 145.7 581.252 l 2
 131.233 581.252 119.351 576.086 110.051 565.752 c 0
 100.751 556.452 96.1006 545.603 96.1006 533.202 c 2
 96.1006 435.552 l 2
 96.1006 422.118 100.751 410.752 110.051 401.452 c 0
 119.351 392.152 131.233 387.502 145.7 387.502 c 2
 193.75 387.502 l 1
241.8 -96.0977 m 0
 228.366 -96.0977 217 -91.4512 207.7 -82.1514 c 0
 198.4 -72.8516 193.75 -61.4854 193.75 -48.0518 c 2
 193.75 -0.00195312 l 1
 48.0498 -0.00195312 l 2
 34.6162 -0.00195312 23.25 4.64844 13.9502 13.9482 c 0
 4.65039 23.248 0 34.6143 0 48.0488 c 2
 0 96.0986 l 1
 193.75 96.0986 l 1
 193.75 291.398 l 1
 96.0996 291.398 l 2
 69.2334 291.398 46.5 300.184 27.9004 317.749 c 0
 9.2998 337.383 0 360.633 0 387.499 c 2
 0 581.249 l 2
 0 607.083 9.2998 629.817 27.9004 649.451 c 0
 46.5 669.085 69.2334 678.901 96.0996 678.901 c 2
 193.75 678.901 l 1
 193.75 726.951 l 2
 193.75 739.352 198.4 750.201 207.7 759.501 c 0
 217 769.835 228.366 775.001 241.8 775.001 c 0
 255.232 775.001 266.6 769.835 275.899 759.501 c 0
 286.232 750.201 291.399 739.352 291.399 726.951 c 2
 291.399 678.901 l 1
 435.55 678.901 l 2
 448.982 678.901 460.35 673.734 469.649 663.401 c 0
 478.949 654.102 483.6 642.734 483.6 629.302 c 2
 483.6 581.252 l 1
 291.399 581.252 l 1
 291.399 387.502 l 1
 387.499 387.502 l 2
 413.333 387.502 436.066 377.686 455.7 358.052 c 0
 474.301 339.452 483.601 317.235 483.601 291.402 c 2
 483.601 96.1016 l 2
 483.601 69.2354 474.301 46.502 455.7 27.9023 c 0
 436.066 9.30176 413.333 0.00195312 387.499 0.00195312 c 2
 291.399 0.00195312 l 1
 291.399 -48.0479 l 2
 291.399 -61.4814 286.232 -72.8477 275.899 -82.1484 c 0
 266.6 -91.4482 255.232 -96.0977 241.8 -96.0977 c 0
EndSplineSet
EndChar

StartChar: percent
Encoding: 37 37 8
Width: 775
GlyphClass: 2
Flags: W
HStem: 0 96.0996<483.6 581.25 581.25 581.25> 193.75 97.651<483.6 581.25 581.25 581.25> 387.5 96.1<96.0996 193.75 193.75 193.75> 581.25 97.651<96.0996 193.75 193.75 193.75>
VStem: 0 96.0996<483.6 581.25 581.25 581.25> 193.75 97.651<483.6 581.25 581.25 581.25> 387.5 96.1<96.0996 193.75 193.75 193.75> 581.25 97.651<96.0996 193.75 193.75 193.75>
LayerCount: 2
Fore
SplineSet
581.25 96.0996 m 1
 581.25 193.75 l 1
 483.6 193.75 l 1
 483.6 96.0996 l 1
 581.25 96.0996 l 1
483.6 0 m 2
 456.732 0 433.999 9.2998 415.399 27.9004 c 0
 396.8 46.5 387.5 69.2334 387.5 96.0996 c 2
 387.5 193.75 l 2
 387.5 219.584 396.8 242.317 415.399 261.951 c 0
 433.999 281.585 456.732 291.401 483.6 291.401 c 2
 581.25 291.401 l 2
 607.084 291.401 629.817 281.585 649.451 261.951 c 0
 669.085 242.317 678.901 219.584 678.901 193.75 c 2
 678.901 96.0996 l 2
 678.901 69.2334 669.085 46.5 649.451 27.9004 c 0
 629.817 9.2998 607.084 0 581.25 0 c 2
 483.6 0 l 2
193.75 483.6 m 1
 193.75 581.25 l 1
 96.0996 581.25 l 1
 96.0996 483.6 l 1
 193.75 483.6 l 1
96.0996 387.5 m 2
 69.2334 387.5 46.5 396.8 27.9004 415.399 c 0
 9.2998 433.999 0 456.732 0 483.6 c 2
 0 581.25 l 2
 0 607.084 9.2998 629.817 27.9004 649.451 c 0
 46.5 669.085 69.2334 678.901 96.0996 678.901 c 2
 193.75 678.901 l 2
 219.584 678.901 242.317 669.085 261.951 649.451 c 0
 281.585 629.817 291.401 607.084 291.401 581.25 c 2
 291.401 483.6 l 2
 291.401 456.732 281.585 433.999 261.951 415.399 c 0
 242.317 396.8 219.584 387.5 193.75 387.5 c 2
 96.0996 387.5 l 2
96.0996 0 m 1
 0 96.0996 l 1
 96.0996 193.75 l 1
 193.75 291.4 l 1
 291.4 387.5 l 1
 387.5 483.6 l 1
 483.6 581.25 l 1
 581.25 678.9 l 1
 678.9 581.25 l 1
 581.25 483.6 l 1
 483.6 387.5 l 1
 387.5 291.4 l 1
 291.4 193.75 l 1
 193.75 96.0996 l 1
 96.0996 0 l 1
EndSplineSet
EndChar

StartChar: ampersand
Encoding: 38 38 9
Width: 629
GlyphClass: 2
Flags: W
HStem: 0 96.0996<183.187 364.1> 193.75 97.6494<280.837 364.1 460.2 541.913> 291.399 96.1006<183.187 250.512> 581.25 97.6494<177.313 450.946>
VStem: 72.6992 96.0996<110.488 283.262 401.887 573.113> 364.1 96.1006<96.0996 193.75>
LayerCount: 2
Fore
SplineSet
168.8 0 m 2xdc
 142.45 0 119.199 9.29785 100.6 27.8984 c 0
 81.999 46.498 72.6992 69.748 72.6992 96.0977 c 2
 72.6992 291.398 l 2
 72.6992 303.799 77.3496 314.648 86.6494 323.948 c 0
 95.9492 334.798 106.799 339.448 120.749 339.448 c 1
 106.799 339.448 95.9492 344.099 86.6494 353.398 c 0
 77.3496 361.148 72.6992 373.549 72.6992 387.499 c 2
 72.6992 581.249 l 2
 72.6992 607.599 81.999 629.299 100.6 649.449 c 0
 119.199 669.6 142.449 678.899 168.799 678.899 c 2
 412.149 678.899 l 2
 424.551 678.899 435.399 674.249 444.699 663.399 c 1
 455.55 654.1 460.199 643.25 460.199 629.3 c 2
 460.199 581.25 l 1
 218.399 581.25 l 2
 204.449 581.25 192.05 576.6 182.749 565.75 c 0
 173.449 556.45 168.799 545.601 168.799 533.2 c 2
 168.799 435.55 l 2
 168.799 421.6 173.449 410.75 182.749 401.45 c 0
 192.05 392.15 204.449 387.5 218.399 387.5 c 0
 230.801 387.5 241.649 382.85 250.949 372 c 1
 261.8 362.7 266.449 351.851 266.449 339.45 c 0
 266.449 325.5 261.8 313.1 250.949 303.8 c 0
 241.649 296.05 230.801 291.399 218.399 291.399 c 0xbc
 204.449 291.399 192.05 286.749 182.749 275.899 c 0
 173.449 266.6 168.799 255.75 168.799 241.8 c 2
 168.799 145.7 l 2
 168.799 131.75 173.449 119.35 182.749 110.05 c 0
 192.05 100.75 204.449 96.0996 218.399 96.0996 c 2
 364.1 96.0996 l 1
 364.1 193.75 l 1
 314.5 193.75 l 2xdc
 300.551 193.75 289.7 198.4 280.4 207.7 c 0
 271.101 217 266.45 227.85 266.45 241.8 c 0
 266.45 255.75 271.101 266.6 280.4 275.899 c 0
 289.7 286.749 300.551 291.399 314.5 291.399 c 2
 556.301 291.399 l 1xbc
 556.301 241.8 l 2
 556.301 227.85 551.649 217 542.35 207.7 c 0
 533.051 198.4 522.2 193.75 508.25 193.75 c 2
 460.2 193.75 l 1
 460.2 0 l 1
 168.8 0 l 2xdc
EndSplineSet
EndChar

StartChar: quotesingle
Encoding: 39 39 10
Width: 134
GlyphClass: 2
Flags: W
HStem: 387.5 193.749
VStem: 13.1006 97.6494<483.6 571.789>
LayerCount: 2
Fore
SplineSet
62.7002 387.5 m 1
 13.1006 483.6 l 1
 13.1006 533.199 l 2
 13.1006 545.6 17.751 556.449 27.0508 565.749 c 0
 36.3506 576.083 48.2334 581.249 62.7002 581.249 c 0
 75.1006 581.249 85.9502 576.083 95.25 565.749 c 0
 105.584 556.449 110.75 545.6 110.75 533.199 c 2
 110.75 483.6 l 1
 62.7002 387.5 l 1
EndSplineSet
EndChar

StartChar: asterisk
Encoding: 42 42 11
Width: 581
GlyphClass: 2
Flags: W
HStem: 291.4 96.1<0 96.0996 387.5 483.6> 387.5 193.75<96.0996 193.75 291.4 387.5> 581.25 97.65<0 96.0996 387.5 483.6>
VStem: 0 96.0996<291.4 387.5 581.25 678.9> 96.0996 291.4<387.5 581.25> 193.75 97.65<291.4 387.5 581.25 678.9> 387.5 96.1<291.4 387.5 581.25 678.9>
LayerCount: 2
Fore
SplineSet
0 291.4 m 1xf2
 0 387.5 l 1
 96.0996 387.5 l 1
 96.0996 291.4 l 1
 0 291.4 l 1xf2
387.5 291.4 m 1
 387.5 387.5 l 1
 483.6 387.5 l 1
 483.6 291.4 l 1
 387.5 291.4 l 1
0 581.25 m 1
 0 678.9 l 1
 96.0996 678.9 l 1
 96.0996 581.25 l 1
 0 581.25 l 1
193.75 291.4 m 1xf6
 193.75 387.5 l 1
 96.0996 387.5 l 1
 96.0996 581.25 l 1
 193.75 581.25 l 1
 193.75 678.9 l 1
 291.4 678.9 l 1
 291.4 581.25 l 1
 387.5 581.25 l 1
 387.5 387.5 l 1
 291.4 387.5 l 1
 291.4 291.4 l 1
 193.75 291.4 l 1xf6
387.5 581.25 m 1
 387.5 678.9 l 1
 483.6 678.9 l 1
 483.6 581.25 l 1
 387.5 581.25 l 1
EndSplineSet
EndChar

StartChar: comma
Encoding: 44 44 12
Width: 246
GlyphClass: 2
Flags: W
HStem: -39 145.7<62.4678 114.643>
VStem: 53.9531 96.0986<-3.93099 97.6146>
LayerCount: 2
Fore
SplineSet
5.90039 -39 m 1
 19.334 -39 30.7031 -34.3496 40.0029 -25.0498 c 0
 49.3027 -15.75 53.9531 -4.38379 53.9531 9.0498 c 2
 53.9531 57.0996 l 2
 53.9531 70.5342 58.6035 81.9004 67.9033 91.2002 c 0
 76.1689 101.534 87.5352 106.7 102.002 106.7 c 0
 115.436 106.7 126.285 101.534 134.552 91.2002 c 1
 144.886 81.9004 150.052 70.5342 150.052 57.0996 c 0
 150.052 30.2334 140.752 7.5 122.151 -11.0996 c 0
 102.518 -29.7002 79.7842 -39 53.9502 -39 c 2
 5.90039 -39 l 1
EndSplineSet
EndChar

StartChar: period
Encoding: 46 46 13
Width: 177
GlyphClass: 2
Flags: W
HStem: 0 145.7<60.3876 127.713>
VStem: 46 96.1<14.3876 137.341>
LayerCount: 2
Fore
SplineSet
94.0498 0 m 0
 80.6162 0 69.25 4.65039 59.9502 13.9502 c 0
 50.6504 23.25 46 34.6162 46 48.0498 c 2
 46 96.0996 l 2
 46 109.534 50.6504 120.9 59.9502 130.2 c 0
 69.25 140.534 80.6162 145.7 94.0498 145.7 c 0
 107.483 145.7 118.85 140.534 128.15 130.2 c 0
 137.45 120.9 142.1 109.534 142.1 96.0996 c 2
 142.1 48.0498 l 2
 142.1 34.6162 137.45 23.25 128.15 13.9502 c 0
 118.85 4.65039 107.483 0 94.0498 0 c 0
EndSplineSet
EndChar

StartChar: zero
Encoding: 48 48 14
Width: 508
GlyphClass: 2
Flags: W
HStem: 0 96.0996<171.489 344.04> 581.249 97.6523<165.615 342.939>
VStem: 61 96.1006<110.488 572.89> 352.399 96.1006<104.614 571.789>
LayerCount: 2
Fore
SplineSet
302.8 96.0996 m 2
 316.232 96.0996 327.6 100.75 336.899 110.05 c 0
 347.232 119.35 352.399 131.232 352.399 145.699 c 2
 352.399 533.199 l 2
 352.399 545.6 347.232 556.449 336.899 565.749 c 0
 327.6 576.083 316.232 581.249 302.8 581.249 c 2
 206.7 581.249 l 2
 192.233 581.249 180.351 576.083 171.051 565.749 c 0
 161.751 556.449 157.101 545.6 157.101 533.199 c 2
 157.101 145.699 l 2
 157.101 131.232 161.751 119.35 171.051 110.05 c 0
 180.351 100.75 192.233 96.0996 206.7 96.0996 c 2
 302.8 96.0996 l 2
157.1 0 m 2
 130.233 0 107.5 9.2998 88.9004 27.9004 c 0
 70.2998 46.5 61 69.2334 61 96.0996 c 2
 61 581.25 l 2
 61 607.084 70.2998 629.817 88.9004 649.451 c 0
 107.5 669.085 130.233 678.901 157.1 678.901 c 2
 352.4 678.901 l 2
 378.233 678.901 400.45 669.085 419.05 649.451 c 0
 438.684 629.817 448.5 607.084 448.5 581.25 c 2
 448.5 96.0996 l 2
 448.5 69.2334 438.684 46.5 419.05 27.9004 c 0
 400.45 9.2998 378.233 0 352.4 0 c 2
 157.1 0 l 2
EndSplineSet
EndChar

StartChar: one
Encoding: 49 49 15
Width: 304
GlyphClass: 2
Flags: W
HStem: 0 21G<146.1 243.75>
VStem: 146.1 97.6504<0 533.198>
LayerCount: 2
Fore
SplineSet
146.1 0 m 1
 146.1 533.198 l 1
 50 483.599 l 1
 50 581.249 l 1
 146.1 678.899 l 1
 195.7 678.899 l 2
 208.101 678.899 218.95 673.732 228.25 663.399 c 0
 238.584 654.1 243.75 642.732 243.75 629.3 c 2
 243.75 0 l 1
 146.1 0 l 1
EndSplineSet
EndChar

StartChar: two
Encoding: 50 50 16
Width: 503
GlyphClass: 2
Flags: W
HStem: 0 97.1943<152.201 434.517> 583.164 96.1924<69.4987 339.081>
VStem: 55.0068 97.1943<97.2012 234.523> 347.584 96.1914<429.129 462.924 462.924 574.515>
LayerCount: 2
Fore
SplineSet
104.098 679.356 m 0
 185.26 679.356 266.422 679.356 347.584 679.356 c 0
 373.636 679.356 395.68 670.338 414.718 652.302 c 0
 433.756 633.264 443.775 610.218 443.775 583.164 c 0
 443.775 526.384 443.775 469.604 443.775 412.824 c 0
 443.775 386.772 439.427 356.385 414.718 345.69 c 0
 343.576 315.129 272.434 284.568 201.292 254.007 c 0
 188.402 248.471 175.477 236.222 166.222 227.454 c 0
 156.439 218.186 152.192 206.412 152.193 193.386 c 0
 152.196 177.354 152.198 161.322 152.201 145.29 c 0
 152.201 129.261 152.201 113.231 152.201 97.2012 c 1
 168.564 97.2012 184.928 97.2012 201.292 97.2012 c 0
 282.382 97.2012 363.473 97.1943 444.562 97.1943 c 1
 444.562 97.1943 443.786 63.126 443.786 49.0977 c 0
 443.786 36.0723 438.766 24.0479 427.744 15.0303 c 1
 418.726 5.00977 407.704 0 395.68 0 c 0
 314.518 0.00292969 233.355 0.00488281 152.193 0.0078125 c 0
 119.798 0.0078125 87.4023 0.0078125 55.0068 0.0078125 c 1
 55.0068 32.4033 55.0068 64.7988 55.0068 97.1943 c 0
 55.0049 145.29 55.0029 193.386 55 241.482 c 0
 54.998 268.536 64.0195 292.586 83.0557 311.622 c 0
 101.093 329.659 127.35 339.49 152.193 350.199 c 0
 211.979 376.418 271.766 402.638 331.552 428.856 c 0
 344.529 434.547 347.584 448.896 347.584 462.924 c 0
 347.584 486.638 347.584 510.352 347.584 534.066 c 0
 347.584 548.094 342.573 560.118 331.552 569.136 c 1
 322.534 579.156 311.512 583.164 297.483 583.164 c 0
 216.85 583.164 56.0127 583.164 56.0127 583.164 c 1
 56.0127 583.164 56.0127 618.234 56.0127 631.26 c 0
 56.0127 645.288 60.0098 656.31 69.0283 666.33 c 0
 79.0479 675.348 90.0693 679.356 104.098 679.356 c 0
EndSplineSet
EndChar

StartChar: question
Encoding: 63 63 17
Width: 438
GlyphClass: 2
Flags: W
HStem: 0 145.7<104.489 178.29> 241.8 145.703<104.489 179.391> 291.399 96.104<187.75 277.04> 581.253 97.648<2.51466 275.938>
VStem: 90.1006 97.6494<14.3876 136.24 256.192 291.399> 285.399 96.101<396.017 571.792>
LayerCount: 2
Fore
SplineSet
139.7 0 m 0x9c
 125.233 0 113.351 4.65039 104.051 13.9502 c 0
 94.751 23.25 90.1006 34.6162 90.1006 48.0498 c 2
 90.1006 96.0996 l 2
 90.1006 109.534 94.751 120.9 104.051 130.2 c 0
 113.351 140.534 125.233 145.7 139.7 145.7 c 0
 152.101 145.7 162.95 140.534 172.25 130.2 c 0
 182.584 120.9 187.75 109.534 187.75 96.0996 c 2
 187.75 48.0498 l 2
 187.75 34.6162 182.584 23.25 172.25 13.9502 c 0
 162.95 4.65039 152.101 0 139.7 0 c 0x9c
139.7 241.8 m 0xdc
 125.233 241.8 113.351 246.453 104.051 255.754 c 0
 94.751 265.054 90.1006 276.938 90.1006 291.402 c 2
 90.1006 339.452 l 2
 90.1006 351.854 94.751 362.702 104.051 372.003 c 0
 113.351 382.336 125.233 387.503 139.7 387.503 c 2xdc
 235.8 387.503 l 2
 249.232 387.503 260.6 392.152 269.899 401.452 c 0
 280.232 410.753 285.399 422.119 285.399 435.553 c 2
 285.399 533.202 l 2
 285.399 545.604 280.232 556.452 269.899 565.753 c 0
 260.6 576.086 249.232 581.253 235.8 581.253 c 2
 -6 581.253 l 1
 -6 629.303 l 2
 -6 642.735 -1.34961 654.104 7.9502 663.401 c 0
 17.25 673.735 28.6162 678.901 42.0498 678.901 c 2
 285.4 678.901 l 2
 311.233 678.901 333.45 669.085 352.05 649.451 c 0
 371.684 629.817 381.5 607.084 381.5 581.25 c 2
 381.5 387.5 l 2
 381.5 360.634 371.684 337.384 352.05 317.75 c 0
 333.45 300.184 311.233 291.399 285.4 291.399 c 2
 187.75 291.399 l 1xbc
 187.75 276.934 182.584 265.05 172.25 255.75 c 0
 162.95 246.45 152.101 241.8 139.7 241.8 c 0xdc
EndSplineSet
EndChar

StartChar: A
Encoding: 65 65 18
Width: 566
GlyphClass: 2
Flags: W
HStem: 195.703 96.286<219.228 399.274>
LayerCount: 2
Fore
SplineSet
308.469 680.264 m 0
 328.106 680.264 364.889 679.977 379.704 624.685 c 2
 584.019 64.9736 l 2
 588.142 53.6787 587.05 41.3193 581.67 28.9639 c 0
 576.015 15.9766 566.513 7.58691 554.271 3.13086 c 0
 550.977 1.93164 548.004 0.487305 544.878 0 c 0
 535.5 -1.46094 526.973 -0.0742188 517.479 4.69727 c 0
 505.438 10.749 497.321 20.7959 493.212 32.0957 c 2
 433.719 195.703 l 1
 350.479 195.703 267.24 195.703 184.001 195.703 c 1
 124.508 32.0957 l 2
 120.398 20.7959 112.251 10.8096 100.24 4.69727 c 0
 93.9277 1.48438 87.5635 0.400391 81.4531 0 c 0
 75.3428 -0.400391 69.2559 0.732422 62.665 3.13086 c 0
 50.4248 7.58691 40.9229 15.9766 35.2666 28.9639 c 0
 29.8867 41.3193 29.5918 53.6729 33.7012 64.9736 c 0
 101.545 251.544 169.389 438.114 237.232 624.685 c 0
 257.12 679.318 289.355 680.264 308.469 680.264 c 0
309.251 539.357 m 1
 279.243 456.901 249.235 374.445 219.228 291.989 c 1
 279.243 291.989 339.259 291.989 399.274 291.989 c 1
 369.267 374.445 339.259 456.901 309.251 539.357 c 1
EndSplineSet
EndChar

StartChar: B
Encoding: 66 66 19
Width: 500
GlyphClass: 2
Flags: W
HStem: 0 97.1943<327.532 369.526> 292.584 96.192<327.532 368.458> 583.164 97.194<199.926 254.386 327.532 368.458>
VStem: 377.632 96.192<105.488 146.292 242.484 283.41 397.472 436.872 535.068 573.99>
LayerCount: 2
Fore
SplineSet
327.532 97.1943 m 1
 313.504 97.1943 157.192 97.1943 157.192 97.1943 c 1
 157.192 162.324 157.192 227.454 157.192 292.584 c 1
 213.972 292.584 270.752 292.584 327.532 292.584 c 0
 341.56 292.584 352.582 287.574 362.602 277.554 c 0
 372.622 267.534 377.632 256.512 377.632 242.484 c 0
 377.632 210.42 377.632 178.355 377.632 146.292 c 0
 377.632 132.264 372.622 120.24 362.602 111.222 c 0
 352.582 101.202 341.56 97.1943 327.532 97.1943 c 1
327.532 388.776 m 0
 270.752 388.776 213.972 388.776 157.192 388.776 c 1
 157.192 453.572 157.192 518.368 157.192 583.164 c 1
 213.972 583.164 270.752 583.164 327.532 583.164 c 0
 341.56 583.164 352.582 578.154 362.602 568.134 c 0
 372.622 558.114 377.632 547.092 377.632 535.068 c 0
 377.632 502.336 377.632 469.604 377.632 436.872 c 0
 377.632 423.846 372.622 411.822 362.602 402.804 c 0
 352.582 393.786 341.56 388.776 327.532 388.776 c 0
61 0 m 0
 166.544 0 272.088 0 377.632 0 c 0
 403.684 0 425.979 9.7627 444.766 28.0557 c 0
 464.055 46.8369 473.824 70.1396 473.824 97.1943 c 0
 473.824 162.324 473.824 227.454 473.824 292.584 c 0
 473.824 304.608 468.814 315.63 458.794 324.648 c 1
 447.772 329.992 436.75 335.336 425.728 340.68 c 1
 437.084 345.356 448.44 350.032 459.796 354.708 c 1
 468.814 362.724 473.824 374.748 473.824 388.776 c 0
 473.824 453.572 473.824 518.368 473.824 583.164 c 0
 473.824 609.216 463.804 631.26 444.766 651.3 c 0
 425.729 671.34 403.684 680.358 377.632 680.358 c 0
 336.55 680.358 295.468 680.358 254.386 680.358 c 0
 218.093 680.358 189.598 647.626 157.204 631.26 c 1
 148.612 674.887 150.832 680.358 109.096 680.358 c 0
 95.0684 680.358 84.0459 675.348 74.0264 666.33 c 0
 65.0078 656.311 61 644.286 61 631.26 c 0
 61 420.84 61 210.42 61 0 c 0
EndSplineSet
EndChar

StartChar: C
Encoding: 67 67 20
Width: 500
GlyphClass: 2
Flags: W
HStem: 0 96.0996<171.489 440.141> 581.249 97.6494<165.615 439.04>
VStem: 61 96.1006<110.488 572.89>
LayerCount: 2
Fore
SplineSet
157.1 0 m 2
 130.233 0 107.5 9.29688 88.9004 27.8965 c 0
 70.2998 46.4961 61 69.2305 61 96.0967 c 2
 61 581.246 l 2
 61 607.08 70.2998 629.814 88.9004 649.448 c 0
 107.5 669.082 130.233 678.898 157.1 678.898 c 2
 400.45 678.898 l 2
 412.851 678.898 423.7 673.731 433 663.398 c 0
 443.334 654.099 448.5 642.731 448.5 629.299 c 2
 448.5 581.249 l 1
 206.7 581.249 l 2
 192.233 581.249 180.351 576.083 171.051 565.749 c 0
 161.751 556.449 157.101 545.6 157.101 533.199 c 2
 157.101 145.699 l 2
 157.101 131.232 161.751 119.35 171.051 110.05 c 0
 180.351 100.75 192.233 96.0996 206.7 96.0996 c 2
 448.5 96.0996 l 1
 448.5 48.0498 l 2
 448.5 34.6162 443.334 23.25 433 13.9502 c 0
 423.7 4.65039 412.851 0 400.45 0 c 2
 157.1 0 l 2
EndSplineSet
EndChar

StartChar: D
Encoding: 68 68 21
Width: 533
GlyphClass: 2
Flags: W
HStem: 0 97.1875<157.188 369.411> 583.156 97.1875<199.93 368.45>
VStem: 61 96.1875<97.1875 583.156> 377.625 96.1875<105.59 146.281 146.281 573.981>
LayerCount: 2
Fore
SplineSet
109.094 680.344 m 0
 150.829 680.344 148.628 674.877 157.219 631.25 c 1
 189.613 647.616 218.081 680.344 254.375 680.344 c 0
 295.457 680.344 336.543 680.344 377.625 680.344 c 0
 403.677 680.344 425.743 671.353 444.781 651.312 c 0
 463.819 631.272 473.812 609.208 473.812 583.156 c 2
 473.812 97.1875 l 2
 473.812 70.1338 464.069 46.8438 444.781 28.0625 c 0
 425.994 9.76953 403.677 0 377.625 0 c 0
 272.081 0 166.544 0 61 0 c 1
 61 210.42 61 420.83 61 631.25 c 0
 61 644.276 65.0137 656.324 74.0312 666.344 c 0
 84.0508 675.361 95.0664 680.344 109.094 680.344 c 0
157.188 583.156 m 1
 157.188 97.1875 l 1
 157.188 97.1875 313.503 97.1875 327.531 97.1875 c 0
 341.56 97.1875 352.324 101.462 362.594 111.219 c 0
 372.363 120.5 377.625 132.253 377.625 146.281 c 2
 377.625 535.062 l 2
 377.625 547.087 372.613 558.104 362.594 568.125 c 0
 352.574 578.145 341.56 583.156 327.531 583.156 c 0
 270.751 583.156 213.968 583.156 157.188 583.156 c 1
EndSplineSet
EndChar

StartChar: E
Encoding: 69 69 22
Width: 485
GlyphClass: 2
Flags: W
HStem: 0 96.0996<149.1 432.141> 291.4 96.0986<149.1 400.563> 581.249 97.6494<149.1 432.141>
VStem: 53 96.0996<96.0996 291.4 387.499 581.249>
LayerCount: 2
Fore
SplineSet
53 0 m 1
 53 678.898 l 1
 440.5 678.898 l 1
 440.5 629.299 l 2
 440.5 615.865 435.334 604.499 425 595.199 c 0
 415.7 585.899 404.851 581.249 392.45 581.249 c 2
 149.1 581.249 l 1
 149.1 387.499 l 1
 368.45 387.499 l 6
 380.851 387.499 391.7 382.333 401 371.999 c 4
 411.334 362.699 416.5 351.85 416.5 339.449 c 4
 416.5 324.982 411.334 313.1 401 303.8 c 4
 391.7 295.534 380.851 291.4 368.45 291.4 c 6
 149.1 291.4 l 1
 149.1 96.0996 l 1
 392.45 96.0996 l 2
 404.851 96.0996 415.7 91.4502 425 82.1504 c 0
 435.334 72.8496 440.5 61.4834 440.5 48.0498 c 0
 440.5 34.6162 435.334 23.25 425 13.9502 c 0
 415.7 4.65039 404.851 0 392.45 0 c 2
 53 0 l 1
EndSplineSet
EndChar

StartChar: F
Encoding: 70 70 23
Width: 421
GlyphClass: 2
Flags: W
HStem: 0 21G<102.333 115.767> 291.4 96.099<157.1 384.513> 581.249 97.649<157.1 440.141>
VStem: 61 96.1<14.3876 291.4 387.499 581.249>
LayerCount: 2
Fore
SplineSet
109.05 0 m 0
 95.6162 0 84.25 4.64844 74.9502 13.9482 c 0
 65.6504 23.248 61 34.6143 61 48.0479 c 2
 61 678.898 l 1
 448.5 678.898 l 1
 448.5 629.299 l 2
 448.5 615.865 443.334 604.499 433 595.199 c 0
 423.7 585.899 412.851 581.249 400.45 581.249 c 2
 157.1 581.249 l 1
 157.1 387.499 l 1
 352.4 387.499 l 2
 364.801 387.499 375.65 382.333 384.95 371.999 c 0
 395.284 362.699 400.45 351.85 400.45 339.449 c 0
 400.45 324.982 395.284 313.1 384.95 303.8 c 0
 375.65 295.534 364.801 291.4 352.4 291.4 c 2
 157.1 291.4 l 1
 157.1 48.0498 l 2
 157.1 34.6162 152.45 23.25 143.15 13.9502 c 0
 133.85 4.65039 122.483 0 109.05 0 c 0
EndSplineSet
EndChar

StartChar: G
Encoding: 71 71 24
Width: 558
GlyphClass: 2
Flags: W
HStem: 0 96.1924<171.667 386.157> 291.582 96.1924<262.484 402.682> 582.162 97.1943<166.487 489.961>
VStem: 61 96.1924<110.667 572.978> 254.386 244.488<299.327 380.029> 402.682 96.1924<110.679 145.29 145.29 291.582>
LayerCount: 2
Fore
SplineSet
157.192 0 m 0xf4
 130.138 0 106.591 8.5166 88.0537 27.0537 c 0
 69.5166 45.5908 61 69.1377 61 96.1924 c 0
 61 258.182 61 420.172 61 582.162 c 0
 61 608.214 69.748 630.508 88.0537 650.298 c 0
 106.822 670.588 130.138 679.356 157.192 679.356 c 0
 255.054 679.356 352.916 679.356 450.778 679.356 c 0
 462.802 679.356 473.574 674.082 483.844 664.326 c 0
 493.614 655.045 498.874 643.284 498.874 630.258 c 0
 498.874 614.226 498.874 598.194 498.874 582.162 c 1
 401.346 582.162 303.818 582.162 206.29 582.162 c 0
 192.262 582.162 181 576.425 171.22 566.13 c 0
 161.962 556.385 157.192 546.09 157.192 534.066 c 0
 157.192 404.474 157.192 274.882 157.192 145.29 c 0
 157.192 131.262 161.701 119.739 171.22 110.22 c 0
 180.739 100.701 192.262 96.1924 206.29 96.1924 c 0
 238.354 96.1924 270.418 96.1924 302.482 96.1924 c 0
 316.51 96.1924 376.905 100.962 386.65 110.22 c 0
 396.945 120 402.682 131.262 402.682 145.29 c 0
 402.682 194.054 402.682 242.818 402.682 291.582 c 1xf4
 369.282 291.582 330.674 291.582 302.482 291.582 c 0
 274.29 291.582 254.386 313.792 254.386 339.678 c 0xf8
 254.386 365.563 275.479 387.774 302.482 387.774 c 0
 329.485 387.774 433.41 387.774 498.874 387.774 c 1
 498.874 290.58 498.874 193.386 498.874 96.1924 c 0
 498.874 69.1377 489.104 45.835 469.816 27.0537 c 0
 451.028 8.76074 428.734 0 402.682 0 c 0
 376.63 0 184.246 0 157.192 0 c 0xf4
EndSplineSet
EndChar

StartChar: H
Encoding: 72 72 25
Width: 536
GlyphClass: 2
Flags: W
HStem: 0 21G<102.082 115.609 443.263 456.79> 291.582 96.192<157.192 402.682>
VStem: 61 96.192<13.474 291.582 387.774 663.901> 402.682 96.192<13.4848 291.582 387.774 663.913>
LayerCount: 2
Fore
SplineSet
109.096 0 m 0
 95.0684 0 83.5449 3.50684 74.0264 13.0264 c 0
 64.5068 22.5449 61 34.0684 61 48.0957 c 0
 61 242.15 61 436.204 61 630.258 c 0
 61 643.284 65.0078 655.308 74.0264 664.326 c 0
 84.0459 674.346 95.0684 679.356 109.096 679.356 c 0
 122.122 679.356 133.144 674.346 143.164 664.326 c 0
 152.182 655.308 157.192 643.284 157.192 630.258 c 0
 157.192 549.43 157.192 468.602 157.192 387.774 c 1
 239.022 387.774 320.852 387.774 402.682 387.774 c 1
 402.682 468.602 402.682 549.43 402.682 630.258 c 0
 402.682 643.284 406.411 655.57 414.706 664.326 c 0
 424.447 674.608 435.748 679.356 450.778 679.356 c 0
 466.81 679.356 482.842 679.356 498.874 679.356 c 1
 498.874 468.936 498.874 258.516 498.874 48.0957 c 0
 498.874 34.0684 494.114 22.7822 483.844 13.0264 c 0
 474.074 3.74414 462.802 0 450.778 0 c 0
 435.748 0 423.946 3.27246 414.706 13.0264 c 0
 405.91 22.3105 402.682 34.0684 402.682 48.0957 c 0
 402.682 129.258 402.682 210.42 402.682 291.582 c 1
 320.852 291.582 239.022 291.582 157.192 291.582 c 1
 157.192 210.42 157.192 129.258 157.192 48.0957 c 0
 157.192 34.0684 152.683 22.5449 143.164 13.0264 c 0
 133.645 3.50684 122.122 0 109.096 0 c 0
EndSplineSet
EndChar

StartChar: I
Encoding: 73 73 26
Width: 264
GlyphClass: 2
Flags: W
VStem: 109 96.2861<7.42155 672.848>
LayerCount: 2
Fore
SplineSet
157.534 680.267 m 0
 179.953 680.048 201.965 667.501 205.286 630.949 c 2
 205.286 49.3203 l 2
 201.965 12.7686 179.953 0.22168 157.534 0.00292969 c 0
 135.115 -0.21582 112.36 12.3398 109 49.3203 c 2
 109 630.949 l 2
 112.36 667.93 135.115 680.485 157.534 680.267 c 0
EndSplineSet
EndChar

StartChar: J
Encoding: 74 74 27
Width: 222
GlyphClass: 2
Flags: W
VStem: 65 97.1943<0 669.504>
LayerCount: 2
Fore
SplineSet
16.9043 -97.1943 m 1
 32.9355 -64.7959 48.9678 -32.3984 65 0 c 1
 65 205.346 65 410.691 65 616.037 c 0
 62.5254 639.53 71.0059 665.65 94.3086 675.599 c 0
 123.624 689.727 157.806 665.196 161.916 635.092 c 0
 162.564 423.41 162.009 211.694 162.194 0 c 1
 138.205 -23.9883 114.217 -47.9775 90.2275 -71.9658 c 1
 73.4326 -98.8359 46.1768 -100.449 16.9043 -97.1943 c 1
EndSplineSet
EndChar

StartChar: K
Encoding: 75 75 28
Width: 540
GlyphClass: 2
Flags: W
HStem: 0.785156 21G<413.151 426.613>
VStem: 61 96.2861<7.42155 244.24 436.812 673.113>
LayerCount: 2
Fore
SplineSet
108.752 680.267 m 1
 124.928 680.338 141.104 680.41 157.279 680.481 c 1
 157.282 599.258 157.284 518.035 157.286 436.812 c 1
 233.479 513.006 309.674 589.199 385.867 665.394 c 0
 395.078 674.604 406.774 680.267 419.528 680.267 c 0
 433.698 680.267 444.836 676.096 454.755 666.176 c 0
 465.975 654.956 477.195 643.735 488.416 632.516 c 1
 391.347 535.446 294.278 438.378 197.209 341.309 c 1
 294.278 243.979 391.347 146.649 488.416 49.3203 c 1
 477.195 38.0996 465.975 26.8789 454.755 15.6592 c 0
 444.836 5.74023 433.698 0.785156 419.528 0.785156 c 0
 406.774 0.785156 395.078 6.44824 385.867 15.6592 c 0
 309.674 91.8525 233.479 168.047 157.286 244.24 c 1
 157.286 179.267 157.286 114.293 157.286 49.3203 c 0
 153.926 12.3398 131.171 -0.21582 108.752 0.00292969 c 0
 86.333 0.22168 64.3213 12.7686 61 49.3203 c 0
 61 146.389 61 243.457 61 340.526 c 0
 61 437.334 61 534.142 61 630.949 c 0
 64.3213 667.501 86.333 680.048 108.752 680.267 c 1
EndSplineSet
EndChar

StartChar: L
Encoding: 76 76 29
Width: 423
GlyphClass: 2
Flags: W
HStem: 0 96.0996<157.1 440.141>
VStem: 61 96.1<96.0996 670.541>
LayerCount: 2
Fore
SplineSet
61 0 m 1
 61 629.301 l 2
 61 642.733 65.6504 654.101 74.9502 663.4 c 0
 84.25 673.733 95.6162 678.9 109.05 678.9 c 2
 157.1 678.9 l 1
 157.1 96.0996 l 1
 400.45 96.0996 l 2
 412.851 96.0996 423.7 91.4502 433 82.1504 c 0
 443.334 72.8496 448.5 61.4834 448.5 48.0498 c 0
 448.5 34.6162 443.334 23.25 433 13.9502 c 0
 423.7 4.65039 412.851 0 400.45 0 c 2
 61 0 l 1
EndSplineSet
EndChar

StartChar: M
Encoding: 77 77 30
Width: 606
GlyphClass: 2
Flags: W
HStem: 0.0224609 21G<97.2642 122.284>
VStem: 61.1895 96.9951<6.75039 450.943> 450.966 96.0039<9.7493 452.947>
LayerCount: 2
Fore
SplineSet
158.194 450.943 m 1
 158.192 316.029 158.181 181.114 158.185 46.1992 c 0
 158.187 14.2744 134.881 0.0224609 109.688 0.0224609 c 0
 84.8408 0.0224609 61.2012 11.0371 61.1895 44.0234 c 0
 61.127 217.719 61 565.107 61 565.107 c 1
 61 565.107 61.668 611.242 62.002 634.31 c 0
 62.2773 653.365 73.8164 680.401 95.8281 680.401 c 2
 105.904 680.401 l 2
 125.463 680.401 142.348 673.104 152.182 656.354 c 0
 203.221 569.426 252.382 481.338 302.482 393.829 c 1
 340.106 458.683 377.731 523.536 415.356 588.39 c 0
 431.559 614.436 444.526 642.842 463.24 667.062 c 1
 487.247 685.575 518.924 677.632 546.97 679.399 c 1
 546.97 477.115 546.97 274.831 546.97 72.5469 c 0
 548.03 50.375 547.22 25.5186 527.464 10.8799 c 0
 500.67 -13.9443 450.202 6.50781 450.966 44.0176 c 0
 450.528 180.321 450.903 316.639 450.778 452.947 c 1
 401.346 367.777 351.914 282.607 302.482 197.438 c 1
 254.386 281.939 206.29 366.441 158.194 450.943 c 1
EndSplineSet
EndChar

StartChar: N
Encoding: 78 78 31
Width: 555
GlyphClass: 2
Flags: W
HStem: 0 21G<102.082 115.609>
VStem: 61 97.1943<14.476 450.9> 397.672 98.1963<230.46 672.78>
LayerCount: 2
Fore
SplineSet
434.746 679.356 m 1
 455.12 679.356 475.494 679.356 495.868 679.356 c 1
 495.868 471.608 495.868 263.86 495.868 56.1123 c 0
 495.868 26.0703 474.744 1.00195 447.772 1.00195 c 0
 444.572 1.00195 444.414 1.00195 439.688 1.00195 c 0
 432.537 1.00195 416.756 5.83496 402.682 30.0596 c 0
 321.186 170.34 239.69 310.62 158.194 450.9 c 1
 158.194 316.966 158.194 183.032 158.194 49.0977 c 0
 158.194 35.0703 153.184 24.0479 143.164 14.0283 c 0
 134.146 5.00977 122.122 0 109.096 0 c 0
 95.0684 0 83.5449 4.50879 74.0264 14.0283 c 0
 64.5068 23.5469 61 35.0703 61 49.0977 c 0
 61 241.148 61 433.198 61 625.248 c 0
 64.7012 660.929 71.4932 679.181 109.096 679.356 c 0
 120.689 679.356 142.358 673.351 152.182 656.311 c 0
 234.012 514.36 315.842 372.41 397.672 230.46 c 1
 397.672 364.06 397.672 497.66 397.672 631.26 c 0
 397.672 644.286 401.68 655.308 409.696 664.326 c 0
 418.714 673.344 426.73 678.354 434.746 679.356 c 1
EndSplineSet
EndChar

StartChar: O
Encoding: 79 79 32
Width: 558
GlyphClass: 2
Flags: W
HStem: 0 97.1943<163.695 393.404> 583.164 97.194<165.243 392.033>
VStem: 59 96.192<105.843 573.113> 400.682 97.194<104.472 574.661>
LayerCount: 2
Fore
SplineSet
205.292 97.1943 m 0,0,-1
351.584 97.1943 m 2,1,-1
 365.612 97.1943 377.636 101.202 386.654 111.222 c 0,4,-1
 396.674 120.24 400.682 132.264 400.682 146.292 c 2,7,-1
 400.682 535.068 l 2,8,-1
 400.682 547.092 396.674 558.114 386.654 567.132 c 1,11,-1
 377.636 578.154 365.612 583.164 351.584 583.164 c 2,14,-1
 205.292 583.164 l 2,15,-1
 191.264 583.164 180.242 578.154 171.224 567.132 c 1,18,-1
 160.202 558.114 155.192 547.092 155.192 535.068 c 2,21,-1
 155.192 146.292 l 2,22,-1
 155.192 132.264 160.202 120.24 171.224 111.222 c 1,25,-1
 180.242 101.202 191.264 97.1943 205.292 97.1943 c 2,28,-1
 351.584 97.1943 l 2,1,-1
400.682 0 m 0,29,-1
 318.852 0 237.022 0 155.192 0 c 0,32,-1
 129.14 0 107.096 10.0195 88.0576 28.0557 c 0,35,-1
 69.0195 47.0938 59 70.1396 59 97.1943 c 0,38,-1
 59 259.184 59 421.174 59 583.164 c 0,41,-1
 59 609.216 69.0195 631.26 88.0576 651.3 c 0,44,-1
 107.096 671.34 129.14 680.358 155.192 680.358 c 0,47,-1
 237.022 680.358 318.852 680.358 400.682 680.358 c 0,50,-1
 427.736 680.358 450.782 671.34 469.82 651.3 c 0,53,-1
 487.856 631.26 497.876 609.216 497.876 583.164 c 0,56,-1
 497.876 421.174 497.876 259.184 497.876 97.1943 c 0,59,-1
 497.876 70.1396 487.856 47.0938 469.82 28.0557 c 0,62,-1
 450.782 10.0195 427.736 0 400.682 0 c 0,29,-1
EndSplineSet
EndChar

StartChar: P
Encoding: 80 80 33
Width: 439
GlyphClass: 2
Flags: W
HStem: 0 21G<60 119.277> 291.582 96.192<156.192 342.515> 582.162 97.194<198.92 340.75>
VStem: 60 96.192<10.3109 291.582 387.774 573.659> 351.582 96.192<397.003 435.87 435.87 571.33>
LayerCount: 2
Fore
SplineSet
60 0 m 1
 60 210.086 60 420.172 60 630.258 c 0
 60 643.284 64.0078 655.308 73.0264 664.326 c 0
 83.0459 674.346 94.0684 679.356 108.096 679.356 c 0
 157.327 679.356 159.695 682.514 156.192 630.258 c 1
 188.59 646.624 217.089 679.356 253.386 679.356 c 0
 286.118 679.356 318.85 679.356 351.582 679.356 c 0
 377.634 679.356 399.678 670.338 418.716 650.298 c 0
 437.754 630.258 447.774 608.214 447.774 582.162 c 0
 447.774 517.366 447.774 452.57 447.774 387.774 c 0
 447.774 360.72 438.504 336.901 418.716 317.634 c 0
 400.428 299.827 377.634 291.582 351.582 291.582 c 0
 286.452 291.582 221.322 291.582 156.192 291.582 c 1
 156.192 209.978 156.192 69.1309 156.192 46.7695 c 0
 156.192 24.4072 130.458 0 108.096 0 c 0
 85.7334 0 76.0322 0 60 0 c 1
156.192 387.774 m 1
 204.622 387.774 253.052 387.774 301.482 387.774 c 0
 315.51 387.774 326.082 393.281 335.55 401.802 c 0
 346.122 411.316 351.582 422.844 351.582 435.87 c 0
 351.582 468.602 351.582 501.334 351.582 534.066 c 0
 351.582 546.09 345.57 556.11 335.55 566.13 c 0
 325.53 576.15 315.51 582.162 301.482 582.162 c 0
 269.418 582.162 237.354 582.162 205.29 582.162 c 0
 191.262 582.162 179.238 577.152 170.22 566.13 c 1
 160.2 557.112 156.192 546.09 156.192 534.066 c 0
 156.192 485.302 156.192 436.538 156.192 387.774 c 1
EndSplineSet
EndChar

StartChar: Q
Encoding: 81 81 34
Width: 599
GlyphClass: 2
Flags: W
HStem: 0 97.8516<170.607 314.197> 583.195 97.852<165.069 390.986>
VStem: 59 97.068<112.388 574.328> 401.089 96.286<147.168 573.092>
LayerCount: 2
Fore
SplineSet
156.068 681.047 m 1
 237.898 681.047 319.259 681.047 401.089 681.047 c 0
 427.141 681.047 449.373 671.34 468.411 651.3 c 0
 487.449 631.26 497.375 609.247 497.375 583.195 c 0
 497.375 421.414 497.375 259.633 497.375 97.8516 c 0
 497.375 83.7207 494.841 70.6846 489.547 58.7109 c 1
 508.596 39.6621 527.644 20.6133 546.692 1.56543 c 1
 523.99 -21.1367 501.289 -43.8379 478.588 -66.5391 c 1
 455.886 -43.8379 433.185 -21.1367 410.482 1.56543 c 1
 407.328 1.25977 404.362 0 401.089 0 c 0
 319.259 0 237.898 0 156.068 0 c 0
 129.015 0 105.718 9.64355 87.1816 28.1807 c 0
 68.6445 46.7178 59 70.7969 59 97.8516 c 0
 59 259.633 59 421.414 59 583.195 c 0
 59 609.247 68.875 631.51 87.1816 651.3 c 0
 105.949 671.589 129.015 681.047 156.068 681.047 c 1
205.386 583.195 m 1
 191.358 583.195 179.939 577.833 170.159 567.539 c 0
 160.901 557.793 156.068 547.467 156.068 535.443 c 0
 156.068 405.758 156.068 276.071 156.068 146.386 c 0
 156.068 132.357 160.641 121.461 170.159 111.941 c 0
 179.679 102.423 191.358 97.8516 205.386 97.8516 c 0
 241.828 97.8516 277.755 97.8516 314.197 97.8516 c 1
 305.426 106.945 300.106 118.326 300.106 130.729 c 0
 300.106 144.899 303.495 156.037 313.414 165.956 c 0
 324.896 177.437 336.377 188.918 347.857 200.399 c 1
 365.602 182.656 383.346 164.912 401.089 147.168 c 1
 401.089 276.594 401.089 406.019 401.089 535.443 c 0
 401.089 547.467 395.453 557.519 385.433 567.539 c 0
 375.413 577.559 365.017 583.195 350.989 583.195 c 0
 302.225 583.195 254.15 583.195 205.386 583.195 c 1
EndSplineSet
EndChar

StartChar: R
Encoding: 82 82 35
Width: 471
GlyphClass: 2
Flags: W
HStem: 0 21G<60 119.061 380.807 421.324> 291.582 96.192<156.192 242.865> 582.162 97.194<196.468 340.75>
VStem: 60 96.192<9.75869 291.582 387.774 572.978 630.258 663.901> 351.582 96.192<397.003 435.87 435.87 571.33>
LayerCount: 2
Fore
SplineSet
60 0 m 1
 60 210.086 60 420.172 60 630.258 c 0
 60 643.284 64.0078 655.308 73.0264 664.326 c 0
 83.0459 674.346 94.0684 679.356 108.096 679.356 c 0
 143.041 679.356 156.192 678.942 156.192 630.258 c 1
 178.125 642.921 217.089 679.356 253.386 679.356 c 0
 286.118 679.356 318.85 679.356 351.582 679.356 c 0
 377.634 679.356 399.678 670.338 418.716 650.298 c 0
 437.754 630.258 447.774 608.214 447.774 582.162 c 0
 447.774 517.366 447.774 452.57 447.774 387.774 c 0
 447.774 360.72 438.504 336.901 418.716 317.634 c 0
 400.428 299.827 377.634 291.582 351.582 291.582 c 0
 347.407 291.582 343.232 291.582 339.057 291.582 c 1
 355.757 258.85 372.457 226.118 389.157 193.386 c 0
 405.189 160.988 421.221 128.59 437.253 96.1924 c 0
 454.062 67.0752 453.491 0 389.157 0 c 1
 372.457 32.0645 355.757 64.1279 339.057 96.1924 c 0
 323.025 128.59 306.993 160.988 290.961 193.386 c 0
 274.929 226.118 258.897 258.85 242.865 291.582 c 1
 213.974 291.582 185.083 291.582 156.192 291.582 c 1
 156.192 209.351 156.192 66.8164 156.192 44.8877 c 0
 156.192 22.958 130.025 0 108.096 0 c 0
 86.166 0 76.0322 0 60 0 c 1
301.482 387.774 m 1
 315.51 387.774 326.082 393.281 335.55 401.802 c 0
 346.122 411.317 351.582 422.844 351.582 435.87 c 0
 351.582 468.602 351.582 501.334 351.582 534.066 c 0
 351.582 546.09 345.57 556.11 335.55 566.13 c 0
 325.53 576.15 315.51 582.162 301.482 582.162 c 0
 269.418 582.162 237.354 582.162 205.29 582.162 c 0
 191.262 582.162 180 576.425 170.22 566.13 c 0
 160.962 556.385 156.192 546.09 156.192 534.066 c 0
 156.192 485.302 156.192 436.538 156.192 387.774 c 1
 204.622 387.774 253.052 387.774 301.482 387.774 c 1
EndSplineSet
EndChar

StartChar: S
Encoding: 83 83 36
Width: 503
GlyphClass: 2
Flags: W
HStem: 0 96.1924<67.4987 336.318> 291.582 96.1924<164.647 334.363> 582.162 97.1943<159.471 432.517>
VStem: 53 97.1943<402.227 572.437> 345.584 96.1924<105.855 280.508>
LayerCount: 2
Fore
SplineSet
102.098 0 m 0
 88.0703 0 77.0479 4.00781 67.0283 13.0264 c 0
 58.0098 23.0459 54.0127 34.0684 54.0127 48.0957 c 0
 54.0127 61.1221 54.0127 96.1924 54.0127 96.1924 c 1
 54.0127 96.1924 214.851 96.1924 295.484 96.1924 c 0
 322.395 98.1113 344.425 117.349 345.584 145.29 c 0
 345.584 177.354 345.584 209.418 345.584 241.482 c 0
 343.27 267.62 322.223 290.021 295.484 291.582 c 0
 247.054 291.582 198.624 291.582 150.194 291.582 c 0
 123.14 291.582 100.094 300.6 81.0557 317.634 c 0
 63.0195 337.674 53 360.72 53 387.774 c 0
 53 452.57 53 517.366 53 582.162 c 0
 53 608.214 63.0195 630.258 81.0557 650.298 c 0
 100.094 670.338 123.14 679.356 150.194 679.356 c 0
 231.356 679.356 312.518 679.356 393.68 679.356 c 0
 405.704 679.356 416.726 674.346 425.744 664.326 c 1
 436.766 655.308 441.786 643.284 441.786 630.258 c 0
 441.786 616.23 442.562 582.162 442.562 582.162 c 1
 361.473 582.162 280.383 582.162 199.292 582.162 c 0
 173.401 579.99 151.488 560.963 150.194 534.066 c 0
 150.194 501.334 150.194 468.602 150.194 435.87 c 0
 150.194 422.844 154.202 410.82 164.222 401.802 c 0
 173.24 392.784 185.264 387.774 199.292 387.774 c 0
 248.056 387.774 296.82 387.774 345.584 387.774 c 0
 371.636 387.774 393.68 377.754 412.718 358.716 c 0
 431.756 339.678 441.776 317.634 441.776 291.582 c 0
 441.776 226.452 441.776 161.322 441.776 96.1924 c 0
 441.776 69.1377 432.007 45.835 412.718 27.0537 c 0
 393.931 8.76074 371.636 0 345.584 0 c 0
 264.422 0 183.26 0 102.098 0 c 0
EndSplineSet
EndChar

StartChar: T
Encoding: 84 84 37
Width: 552
GlyphClass: 2
Flags: W
HStem: 0 21G<259.083 272.516> 581.25 97.649<32.5147 217.75 315.399 499.085>
VStem: 217.75 97.649<14.3876 581.25>
LayerCount: 2
Fore
SplineSet
265.8 0 m 0
 252.366 0 241 4.65039 231.7 13.9502 c 0
 222.4 23.25 217.75 34.6162 217.75 48.0498 c 2
 217.75 581.25 l 1
 24 581.25 l 1
 24 629.3 l 2
 24 642.732 28.6504 654.1 37.9502 663.399 c 0
 47.25 673.732 58.6162 678.899 72.0498 678.899 c 2
 459.55 678.899 l 2
 472.982 678.899 484.35 673.732 493.649 663.399 c 0
 502.949 654.1 507.6 642.732 507.6 629.3 c 2
 507.6 581.25 l 1
 315.399 581.25 l 1
 315.399 48.0498 l 2
 315.399 34.6162 310.232 23.25 299.899 13.9502 c 0
 290.6 4.65039 279.232 0 265.8 0 c 0
EndSplineSet
EndChar

StartChar: U
Encoding: 85 85 38
Width: 557
GlyphClass: 2
Flags: W
HStem: 0 96.1934<170.67 362.166>
VStem: 59 97.194<110.669 670.762> 399.179 98.196<110.657 145.291 145.291 669.72>
LayerCount: 2
Fore
SplineSet
156.134 0 m 0
 129.08 0 106.094 9.01855 87.0557 27.0547 c 0
 69.0195 46.0928 59 69.1387 59 96.1934 c 0
 59 274.215 59 452.237 59 630.259 c 0
 59 657.42 80.001 680.055 108.098 679.357 c 0
 134.865 678.692 156.194 657.689 156.194 630.259 c 0
 156.194 468.604 156.194 306.947 156.194 145.291 c 0
 156.194 131.263 160.703 119.74 170.222 110.221 c 0
 179.741 100.702 191.264 96.1934 205.292 96.1934 c 0
 255.559 96.1934 305.826 96.1934 356.093 96.1934 c 0
 367.115 96.1934 376.885 100.438 386.153 110.221 c 0
 394.921 119.477 399.179 131.263 399.179 145.291 c 0
 399.179 306.947 399.179 468.603 399.179 630.259 c 0
 399.179 656.854 419.62 679.986 447.275 679.357 c 0
 473.523 678.76 497.375 657.416 497.375 630.259 c 0
 497.375 436.205 497.375 242.151 497.375 48.0967 c 0
 497.375 34.0693 492.365 23.0469 481.343 13.0273 c 0
 472.325 4.00879 461.303 0.000976562 447.275 0.000976562 c 0
 408.918 0.000976562 406.845 8.90527 399.179 48.0967 c 1
 370.121 32.0654 345.192 0.000976562 312.005 0.000976562 c 0
 260.048 0.000976562 208.091 0 156.134 0 c 0
EndSplineSet
EndChar

StartChar: V
Encoding: 86 86 39
Width: 575
GlyphClass: 2
Flags: W
HStem: 0 21G<307.566 326.941>
LayerCount: 2
Fore
SplineSet
562.533 677.133 m 0
 587.654 667.396 601.332 640.088 592.281 615.291 c 0
 524.177 428.721 456.072 242.15 387.967 55.5801 c 0
 373.151 0.287109 336.761 0 317.122 0 c 0
 298.01 0 265.382 0.945312 245.494 55.5801 c 0
 177.651 242.15 109.808 428.721 41.9639 615.291 c 0
 32.5566 641.161 45.7129 666.86 70.9277 677.133 c 0
 96.1436 687.405 123.537 673.52 132.771 648.169 c 0
 194.352 479.081 255.933 309.994 317.514 140.906 c 1
 378.833 309.994 440.154 479.081 501.475 648.169 c 0
 510.616 673.378 537.414 686.869 562.533 677.133 c 0
EndSplineSet
EndChar

StartChar: W
Encoding: 87 87 40
Width: 605
GlyphClass: 2
Flags: W
LayerCount: 2
Fore
SplineSet
602.856 679.655 m 0
 629.433 679.655 651.391 658.48 651.391 631.903 c 0
 651.391 628.301 650.577 624.322 649.825 620.944 c 0
 603.9 426.285 557.975 231.625 512.05 36.9658 c 0
 507.097 16.9697 490.303 1.94336 469.778 0.173828 c 0
 449.254 -1.5957 429.546 10.2842 421.244 29.1377 c 0
 387.061 108.463 352.878 187.788 318.695 267.113 c 1
 284.513 187.788 250.33 108.463 216.146 29.1377 c 0
 207.845 10.2842 188.92 -1.5957 168.396 0.173828 c 0
 147.871 1.94336 130.294 16.9697 125.341 36.9658 c 0
 79.416 231.625 33.4902 426.285 -12.4346 620.944 c 0
 -13.1865 624.322 -14 628.301 -14 631.903 c 0
 -14 658.48 7.95801 679.655 34.5342 679.655 c 0
 56.958 679.655 75.374 664.408 80.7207 643.646 c 0
 81.0498 642.368 81.2783 641.049 81.5029 639.731 c 0
 116.208 493.085 150.912 346.438 185.617 199.791 c 1
 215.364 268.679 245.111 337.566 274.857 406.453 c 0
 282.67 423.646 299.812 434.635 318.695 434.635 c 0
 337.579 434.635 354.721 423.646 362.533 406.453 c 0
 392.279 337.566 422.026 268.679 451.773 199.791 c 1
 486.479 346.438 521.183 493.085 555.888 639.731 c 2
 555.888 639.731 556.411 642.348 556.67 643.646 c 0
 562.017 664.408 580.433 679.655 602.856 679.655 c 0
EndSplineSet
EndChar

StartChar: X
Encoding: 88 88 41
Width: 538
GlyphClass: 2
Flags: W
LayerCount: 2
Fore
SplineSet
99.5 679.406 m 0
 114.486 679.353 129.933 673.28 139.408 661.368 c 0
 183.638 588.182 226.309 513.983 269.938 440.406 c 1
 309.707 508.004 349.478 575.603 389.247 643.2 c 0
 398.472 663.333 416.516 680.785 440.344 679.406 c 0
 474.891 682.098 496.319 640.596 480.908 611.818 c 0
 429.858 520.91 378.013 430.431 326.656 339.688 c 1
 370.242 263.223 413.828 186.758 457.413 110.292 c 0
 468.996 86.3291 491.292 64.2266 484.706 35.4229 c 0
 478.62 -5.05078 418.014 -12.459 397.52 20.1172 c 0
 354.604 92.8477 312.507 166.077 269.906 239 c 1
 230.137 171.402 190.366 103.804 150.597 36.2061 c 0
 141.372 16.0732 123.328 -1.37891 99.5 0 c 0
 64.9531 -2.69141 43.5244 38.8105 58.9355 67.5879 c 0
 109.984 158.486 161.831 248.955 213.188 339.688 c 1
 161.831 430.431 109.986 520.91 58.9355 611.818 c 0
 43.5244 640.596 64.9531 682.098 99.5 679.406 c 0
EndSplineSet
EndChar

StartChar: Y
Encoding: 89 89 42
Width: 559
GlyphClass: 2
Flags: W
VStem: 225.3 96.099<12.7869 278.997>
LayerCount: 2
Fore
SplineSet
73.4004 675.8 m 1
 79.5996 675.8 85.7979 674.767 91.9971 672.7 c 0
 106.464 669.601 116.798 662.885 122.997 652.551 c 2
 273.348 389.051 l 1
 425.247 652.551 l 2
 431.447 662.885 441.265 669.601 454.697 672.7 c 0
 468.131 676.834 480.531 675.8 491.897 669.6 c 0
 505.331 662.365 512.565 652.031 513.6 638.599 c 1
 517.732 626.197 516.699 614.831 510.499 604.497 c 2
 321.399 278.997 l 1
 321.399 44.9473 l 2
 321.399 31.5137 317.267 20.6641 309 12.3975 c 0
 298.666 2.06348 287.041 -3.10254 274.125 -3.10254 c 0
 261.209 -3.10254 249.584 2.06348 239.25 12.3975 c 0
 229.95 20.6641 225.3 31.5137 225.3 44.9473 c 2
 225.3 278.997 l 1
 37.75 604.497 l 2
 31.5498 614.831 30 626.197 33.0996 638.599 c 0
 36.2002 652.031 43.9502 662.365 56.3496 669.6 c 0
 61.5166 672.699 67.2002 674.766 73.4004 675.8 c 1
EndSplineSet
EndChar

StartChar: Z
Encoding: 90 90 43
Width: 490
GlyphClass: 2
Flags: W
HStem: 0 96.0996<160.05 428.985> 581.251 97.6494<58.9642 329>
LayerCount: 2
Fore
SplineSet
98.0498 678.9 m 2
 389.448 678.901 l 2
 402.882 678.901 414.248 674.252 423.549 664.951 c 0
 430.782 657.718 434.916 647.384 435.95 633.95 c 1
 437.5 633.95 l 1
 437.5 629.3 l 1
 437.5 584.35 l 1
 437.5 581.25 l 1
 435.95 581.25 l 1
 434.916 575.05 433.366 569.884 431.3 565.75 c 2
 160.05 96.0996 l 1
 437.5 96.0996 l 1
 437.5 48.0498 l 2
 437.5 35.6504 432.85 24.7998 423.55 15.5 c 0
 414.25 5.16602 402.884 0 389.45 0 c 2
 98.0498 0 l 2
 86.6836 0 75.834 5.16602 65.5 15.5 c 0
 55.166 25.834 50 36.6836 50 48.0498 c 2
 50 83.7002 l 1
 50 94.5498 l 1
 50 96.0996 l 1
 51.5498 96.0996 l 1
 52.584 100.233 54.6504 105.4 57.75 111.601 c 2
 329 581.251 l 1
 98.0498 581.251 l 1
 50 581.251 l 1
 50 629.301 l 1
 50 632.4 l 2
 51.0342 644.801 56.2002 655.65 65.5 664.95 c 0
 74.7998 674.25 85.6504 678.9 98.0498 678.9 c 2
EndSplineSet
EndChar

StartChar: underscore
Encoding: 95 95 44
Width: 524
GlyphClass: 2
Flags: W
HStem: 0 96.0996<1.38764 456.212>
LayerCount: 2
Fore
SplineSet
35.0498 0 m 2
 21.6162 0 10.25 4.65039 0.950195 13.9502 c 0
 -8.34961 23.25 -13 34.6162 -13 48.0498 c 0
 -13 61.4834 -8.34961 72.8496 0.950195 82.1504 c 0
 10.25 91.4502 21.6162 96.0996 35.0498 96.0996 c 2
 422.55 96.0996 l 2
 435.982 96.0996 447.35 91.4502 456.649 82.1504 c 0
 465.949 72.8496 470.6 61.4834 470.6 48.0498 c 0
 470.6 34.6162 465.949 23.25 456.649 13.9502 c 0
 447.35 4.65039 435.982 0 422.55 0 c 2
 35.0498 0 l 2
EndSplineSet
EndChar

StartChar: a
Encoding: 97 97 45
Width: 450
GlyphClass: 2
Flags: W
HStem: 0 96<220 276.704> 193.75 97.25<131.332 171 220 266.565> 387.5 96.1016<80.5938 122 268 308.012>
VStem: 27 96<103.487 184.39> 318.4 95.5996<104.779 184.498 339 377.144>
LayerCount: 2
Fore
SplineSet
268 96 m 1
 300 96 140 96 172 96 c 1
 143 96 123 117 123 145 c 0
 123 173 145 190.75 171 193.75 c 0
 203 193.75 236 193.75 268 193.75 c 0
 295 193.75 318.4 171 318.4 145 c 0
 318.4 117 295 96 268 96 c 1
123 0 m 0
 155 0 188 0 220 0 c 0
 257 0 286.4 32 318.4 48 c 1
 326.4 9 328 0 366 0 c 0
 378 0 389 4 398 13 c 0
 409 23 414 34 414 48 c 0
 414 161 414 274.5 414 387.5 c 0
 414 413.5 404 436 385 455 c 0
 366 474 344.4 483.602 318.4 483.602 c 0
 253.4 483.602 187 483.602 122 483.602 c 0
 108 483.602 96 478 87 469 c 0
 77 460 73 448 73 435 c 0
 73 419 73 403.5 73 387.5 c 1
 138 387.5 203 387.5 268 387.5 c 0
 282 387.5 293 382 302 372 c 0
 313 362 318.4 351 318.4 339 c 0
 318.4 307 318.4 274 318.4 241 c 1
 286.4 258 257 291 220 291 c 0
 188 291 155 291 123 291 c 0
 96 291 73 281 54 261 c 0
 36 242 27 219.75 27 193.75 c 0
 27 161.75 27 128 27 96 c 0
 27 69 36 46 54 27 c 0
 73 9 96 0 123 0 c 0
EndSplineSet
EndChar

StartChar: b
Encoding: 98 98 46
Width: 500
GlyphClass: 2
Flags: W
HStem: 0 97<199.754 343.143> 388 95.602<197.937 343.265>
VStem: 60 96<105.779 379.002 436 664.576> 351 97<104.487 146 146 380.195>
LayerCount: 2
Fore
SplineSet
351 0 m 0
 319 0 287 0 254 0 c 0
 218 0 189 33 156 49 c 1
 148 10 147 0 108 0 c 0
 96 0 85 5 76 14 c 0
 65 24 60 35 60 49 c 0
 60 259 60 467.899 60 678.899 c 1
 76 678.899 92 678.899 108 678.899 c 0
 123 678.899 134 675 144 665 c 0
 152 656 156 644 156 631 c 0
 156 566 156 501 156 436 c 1
 189 452 218 483.602 254 483.602 c 0
 287 483.602 319 483.602 351 483.602 c 0
 378 483.602 401 475 420 456 c 0
 438 437 448 414 448 388 c 0
 448 291 448 194 448 97 c 0
 448 70 438 47 420 28 c 0
 401 10 378 0 351 0 c 0
206 97 m 0
 233 97 273 97 302 97 c 0
 331 97 351 118 351 146 c 0
 351 211 351 276 351 340 c 0
 351 368 329 388 302 388 c 0
 270 388 238 388 206 388 c 0
 180 388 156 366 156 340 c 0
 156 276 156 211 156 146 c 0
 156 118 179 97 206 97 c 0
EndSplineSet
EndChar

StartChar: c
Encoding: 99 99 47
Width: 490
GlyphClass: 2
Flags: W
HStem: 0 96.0996<162.489 431.141> 387.499 96.0996<156.615 431.141>
VStem: 52 96.1006<110.488 379.14>
LayerCount: 2
Fore
SplineSet
148.1 0 m 2
 121.233 0 98.5 9.29785 79.9004 27.8975 c 0
 61.2998 46.4971 52 69.2314 52 96.0977 c 2
 52 387.497 l 2
 52 413.331 61.2998 436.065 79.9004 455.699 c 0
 98.5 474.299 121.233 483.599 148.1 483.599 c 2
 391.45 483.599 l 2
 403.851 483.599 414.7 478.948 424 469.648 c 0
 434.334 460.349 439.5 448.981 439.5 435.549 c 2
 439.5 387.499 l 1
 197.7 387.499 l 2
 183.233 387.499 171.351 382.333 162.051 371.999 c 0
 152.751 362.699 148.101 351.85 148.101 339.449 c 2
 148.101 145.699 l 2
 148.101 131.232 152.751 119.35 162.051 110.05 c 0
 171.351 100.75 183.233 96.0996 197.7 96.0996 c 2
 439.5 96.0996 l 1
 439.5 48.0498 l 2
 439.5 34.6162 434.334 23.25 424 13.9502 c 0
 414.7 4.65039 403.851 0 391.45 0 c 2
 148.1 0 l 2
EndSplineSet
EndChar

StartChar: d
Encoding: 100 100 48
Width: 467
GlyphClass: 2
Flags: W
HStem: 0 97<147.857 189 237 291.982> 387.5 96.102<147.983 189 237 293.446>
VStem: 43 97<104.487 146 340 379.229> 334.4 96.6<105.121 146 340 379.326 631 664.576>
LayerCount: 2
Fore
SplineSet
285 97 m 0
 253 97 221 97 189 97 c 0
 160 97 140 118 140 146 c 0
 140 211 140 276 140 340 c 0
 140 368 163 387.5 189 387.5 c 0
 221 387.5 253 387.5 285 387.5 c 0
 312 387.5 334.4 366 334.4 340 c 0
 334.4 276 334.4 211 334.4 146 c 0
 334.4 118 312 97 285 97 c 0
140 0 m 0
 172 0 205 0 237 0 c 0
 274 0 302.4 33 334.4 49 c 1
 342.4 10 345 0 383 0 c 0
 395 0 406 5 415 14 c 0
 426 24 431 35 431 49 c 0
 431 259 431 467.899 431 678.899 c 1
 415 678.899 399 678.899 383 678.899 c 0
 368 678.899 357 675 347 665 c 0
 339 656 334.4 644 334.4 631 c 0
 334.4 566 334.4 501 334.4 436 c 1
 302.4 452 274 483.602 237 483.602 c 0
 205 483.602 172 483.602 140 483.602 c 0
 113 483.602 90 475 71 456 c 0
 53 437 43 413.5 43 387.5 c 0
 43 289.5 43 194 43 97 c 0
 43 70 53 47 71 28 c 0
 90 10 113 0 140 0 c 0
EndSplineSet
EndChar

StartChar: e
Encoding: 101 101 49
Width: 485
GlyphClass: 2
Flags: W
HStem: 0 96<162.264 204 350 391.88> 387 96.6016<163.278 204 300 340.368>
VStem: 59 96<103.264 145 339 378.91> 350 96<339 377.475>
LayerCount: 2
Fore
SplineSet
155 0 m 0
 220 0 285 0 350 0 c 0
 364 0 375 4 384 13 c 0
 395 23 400 34 400 48 c 0
 400 64 400 80 400 96 c 1
 336 96 267 96 204 96 c 0
 190 96 178 100 169 110 c 0
 159 119 155 131 155 145 c 0
 155 158 155 193 155 193 c 1
 236 193 317 193 398 193 c 0
 410 193 421 198 431 207 c 0
 441 217 446 228 446 241 c 0
 446 290 446 339 446 387 c 0
 446 413 436 436 417 455 c 0
 398 474 376 483.602 350 483.602 c 0
 285 483.602 220 483.602 155 483.602 c 0
 128 483.602 105 474 86 455 c 0
 68 436 59 413 59 387 c 0
 59 290 59 193 59 96 c 0
 59 69 68 46 86 27 c 0
 105 9 128 0 155 0 c 0
350 291 m 0
 285 291 220 291 155 291 c 1
 155 307 155 323 155 339 c 0
 155 351 159 362 169 372 c 0
 178 382 190 387 204 387 c 0
 236 387 268 387 300 387 c 0
 314 387 325 382 334 372 c 0
 345 362 350 351 350 339 c 0
 350 323 350 307 350 291 c 0
EndSplineSet
EndChar

StartChar: f
Encoding: 102 102 50
Width: 329
GlyphClass: 2
Flags: W
HStem: 0 21G<113.333 126.767> 387.5 96.0996<168.1 305.44> 581.249 97.6494<176.614 355.039>
VStem: 71.998 96.1016<14.3876 387.5 483.6 572.89>
LayerCount: 2
Fore
SplineSet
120.05 0 m 0
 106.616 0 95.248 4.64648 85.9482 13.9463 c 0
 76.6484 23.2461 71.998 34.6123 71.998 48.0469 c 2
 71.998 581.246 l 2
 71.998 607.08 81.2979 629.814 99.8984 649.448 c 0
 118.498 669.082 141.231 678.898 168.098 678.898 c 2
 363.398 678.898 l 1
 363.398 629.299 l 2
 363.398 615.865 358.231 604.499 347.898 595.199 c 0
 338.599 585.899 327.231 581.249 313.799 581.249 c 2
 217.699 581.249 l 2
 203.232 581.249 191.35 576.083 182.05 565.749 c 0
 172.75 556.449 168.1 545.6 168.1 533.199 c 2
 168.1 483.6 l 1
 265.75 483.6 l 2
 279.184 483.6 290.033 478.949 298.299 469.649 c 0
 308.633 460.35 313.799 448.982 313.799 435.55 c 0
 313.799 422.116 308.633 410.75 298.299 401.45 c 0
 290.033 392.15 279.184 387.5 265.75 387.5 c 2
 168.1 387.5 l 1
 168.1 48.0498 l 2
 168.1 34.6162 163.45 23.25 154.15 13.9502 c 0
 144.85 4.65039 133.483 0 120.05 0 c 0
EndSplineSet
EndChar

StartChar: g
Encoding: 103 103 51
Width: 490
GlyphClass: 2
Flags: W
HStem: -194 97<101.486 326.141> -1 97<147.264 292.418> 388 95.602<148.278 293.885>
VStem: 43 97<103.264 379.91> 335 97<-87.9809 48 104.632 145 145 378.475>
LayerCount: 2
Fore
SplineSet
140 483.602 m 0
 173 483.602 205 483.602 238 483.602 c 0
 274 483.602 303 452 335 436 c 1
 343.921 466.33 343.292 484.406 371.446 484.406 c 0
 374.854 484.406 378.682 484.142 383 483.602 c 0
 395 483.602 406 479 415 470 c 0
 426 461 432 449 432 436 c 0
 432 258 432 81 432 -97 c 0
 432 -123 422 -146 403 -165 c 0
 384 -184 361 -194 335 -194 c 0
 286 -194 236 -194 186 -194 c 0
 172 -194 157 -194 143 -194 c 0
 142 -194 141 -194 140 -194 c 0
 127 -194 117 -189 109 -180 c 1
 98 -171 93 -160 93 -146 c 0
 93 -130 93 -113 93 -97 c 1
 157 -97 221 -97 285 -97 c 0
 299 -97 310 -92 319 -83 c 0
 330 -73 335 -61 335 -48 c 0
 335 -16 335 16 335 48 c 1
 303 32 274 -1 238 -1 c 0
 205 -1 173 -1 140 -1 c 0
 113 -1 90 9 71 27 c 0
 53 46 43 69 43 96 c 0
 43 193 43 291 43 388 c 0
 43 414 53 437 71 456 c 0
 90 475 113 483.602 140 483.602 c 0
189 388 m 1
 175 388 163 383 154 373 c 0
 144 363 140 351 140 339 c 0
 140 275 140 210 140 145 c 0
 140 131 144 119 154 110 c 0
 163 100 175 96 189 96 c 0
 221 96 253 96 285 96 c 0
 299 96 310 100 319 110 c 1
 330 119 335 131 335 145 c 0
 335 210 335 275 335 339 c 0
 335 351 330 363 319 373 c 0
 310 383 299 388 285 388 c 0
 253 388 221 388 189 388 c 1
EndSplineSet
EndChar

StartChar: h
Encoding: 104 104 52
Width: 492
GlyphClass: 2
Flags: W
HStem: 0 21G<93.5 107 384 397.5> 387 96.602<189.164 333.868>
VStem: 52.5 96<13.4695 378.91 435 663.576> 343.5 96<13.4695 377.475>
LayerCount: 2
Fore
SplineSet
100.5 0 m 0
 86.5 0 75.5 4 65.5 13 c 0
 56.5 23 52.5 34 52.5 48 c 2
 52.5 630 l 2
 52.5 643 56.5 655 65.5 664 c 0
 75.5 674 86.5 678.899 100.5 678.899 c 2
 148.5 678.899 l 1
 148.5 435 l 1
 148.5 435 209.5 483.602 245.5 483.602 c 2
 343.5 483.602 l 2
 369.5 483.602 391.5 474 410.5 455 c 0
 429.5 436 439.5 413 439.5 387 c 2
 439.5 48 l 2
 439.5 34 434.5 23 424.5 13 c 0
 414.5 4 403.5 0 391.5 0 c 0
 376.5 0 365.5 4 355.5 13 c 1
 347.5 23 343.5 34 343.5 48 c 2
 343.5 339 l 2
 343.5 351 338.5 362 327.5 372 c 0
 318.5 382 307.5 387 293.5 387 c 2
 197.5 387 l 2
 183.5 387 171.5 382 162.5 372 c 0
 152.5 362 148.5 351 148.5 339 c 2
 148.5 48 l 2
 148.5 34 143.5 23 134.5 13 c 0
 124.5 4 113.5 0 100.5 0 c 0
EndSplineSet
EndChar

StartChar: i
Encoding: 105 105 53
Width: 247
GlyphClass: 2
Flags: W
HStem: 0 21G<127.333 140.767> 533.2 145.696<94.5147 173.586>
VStem: 86 96.0996<14.3876 469.212 540.724 670.538>
LayerCount: 2
Fore
SplineSet
134.05 0 m 0
 120.616 0 109.25 4.65039 99.9502 13.9502 c 0
 90.6504 23.25 86 34.6162 86 48.0498 c 2
 86 435.55 l 2
 86 448.982 90.6504 460.35 99.9502 469.649 c 0
 109.25 478.949 120.616 483.6 134.05 483.6 c 0
 147.483 483.6 158.85 478.949 168.15 469.649 c 0
 177.45 460.35 182.1 448.982 182.1 435.55 c 2
 182.1 48.0498 l 2
 182.1 34.6162 177.45 23.25 168.15 13.9502 c 0
 158.85 4.65039 147.483 0 134.05 0 c 0
134.05 533.2 m 0
 120.616 533.2 109.25 537.851 99.9502 547.15 c 0
 90.6504 555.416 86 566.782 86 581.248 c 2
 86 629.299 l 2
 86 642.731 90.6504 654.099 99.9502 663.396 c 0
 109.25 673.731 120.616 678.896 134.05 678.896 c 0
 147.483 678.896 158.85 673.731 168.15 663.396 c 0
 177.45 654.099 182.1 642.731 182.1 629.299 c 2
 182.1 581.248 l 2
 182.1 566.782 177.45 555.416 168.15 547.15 c 0
 158.85 537.851 147.483 533.2 134.05 533.2 c 0
EndSplineSet
EndChar

StartChar: j
Encoding: 106 106 54
Width: 235
GlyphClass: 2
Flags: W
HStem: 533.2 145.696<86.5147 165.586>
VStem: 78 96.1<0 469.212 540.724 670.537>
LayerCount: 2
Fore
SplineSet
-18.0996 -145.7 m 1
 -18.0996 -96.0996 l 1
 78 0 l 1
 78 435.55 l 2
 78 448.982 82.6504 460.35 91.9502 469.649 c 0
 101.25 478.949 112.616 483.6 126.05 483.6 c 0
 139.483 483.6 150.85 478.949 160.15 469.649 c 0
 169.45 460.35 174.1 448.982 174.1 435.55 c 2
 174.1 -48.0498 l 1
 78 -96.0996 l 1
 -18.0996 -145.7 l 1
126.05 533.2 m 0
 112.616 533.2 101.25 537.851 91.9502 547.15 c 0
 82.6504 555.416 78 566.782 78 581.248 c 2
 78 629.299 l 2
 78 642.731 82.6504 654.099 91.9502 663.396 c 0
 101.25 673.731 112.616 678.896 126.05 678.896 c 0
 139.483 678.896 150.85 673.731 160.15 663.396 c 0
 169.45 654.099 174.1 642.731 174.1 629.299 c 2
 174.1 581.248 l 2
 174.1 566.782 169.45 555.416 160.15 547.15 c 0
 150.85 537.851 139.483 533.2 126.05 533.2 c 0
EndSplineSet
EndChar

StartChar: k
Encoding: 107 107 55
Width: 478
GlyphClass: 2
Flags: W
HStem: 0 21G<62 158 365 378.5>
VStem: 62 96<0 193 328 663.576>
LayerCount: 2
Fore
SplineSet
110 678.899 m 1
 158 678.899 l 1
 158 328 l 1
 308 479 l 2
 317 488 329 494 342 494 c 0
 356 494 367 490 377 480 c 0
 386 471 390 460 390 446 c 0
 390 433 386 420 376 411 c 2
 227 262 l 1
 439 49 l 1
 405 15 l 2
 395 5 385 0 372 0 c 0
 358 0 347 5 337 15 c 2
 158 193 l 1
 158 0 l 1
 62 0 l 1
 62 630 l 2
 62 643 66 655 75 664 c 0
 85 674 96 678.899 110 678.899 c 1
EndSplineSet
EndChar

StartChar: l
Encoding: 108 108 56
Width: 218
GlyphClass: 2
Flags: W
HStem: 0 21G<103.333 158.1>
VStem: 62 96.1<14.3876 670.54>
LayerCount: 2
Fore
SplineSet
110.05 0 m 2
 96.6162 0 85.25 4.65039 75.9502 13.9502 c 0
 66.6504 23.25 62 34.6162 62 48.0498 c 2
 62 629.3 l 2
 62 642.732 66.6504 654.1 75.9502 663.399 c 0
 85.25 673.732 96.6162 678.899 110.05 678.899 c 0
 123.483 678.899 134.85 673.732 144.15 663.399 c 0
 153.45 654.1 158.1 642.732 158.1 629.3 c 2
 158.1 0 l 1
 110.05 0 l 2
EndSplineSet
EndChar

StartChar: m
Encoding: 109 109 57
Width: 768
GlyphClass: 2
Flags: W
HStem: 0 21G<88 101.5 378.5 392 669 682.5> 387.5 96.102<184.115 328.675 475.708 620.147>
VStem: 46 97<13.4695 387.5> 337.4 97.6<13.4695 378.783> 627.25 97.75<13.4695 380.155>
LayerCount: 2
Fore
SplineSet
95 483.602 m 0
 136 483.602 136 479 143 436 c 1
 175 452 204 483.602 240 483.602 c 0
 289 483.602 337 483.602 386 483.602 c 0
 398 483.602 409 479 418 470 c 0
 429 461 435 449 435 436 c 1
 467 452 495 483.602 531 483.602 c 0
 563 483.602 595.25 483.602 627.25 483.602 c 0
 654.25 483.602 677 475 697 456 c 0
 717 437 725 413.5 725 387.5 c 0
 725 274.5 725 162 725 48 c 0
 725 34 721 23 711 13 c 0
 702 4 689 0 676 0 c 0
 662 0 652 4 643 13 c 0
 633 23 627.25 34 627.25 48 c 0
 627.25 148 627.25 248 627.25 348 c 1
 626.25 357 622 365 614 373 c 0
 605 383 593 387.5 579 387.5 c 0
 531 387.5 483 387.5 435 387.5 c 1
 435 274.5 435 162 435 48 c 0
 435 34 429 23 419 13 c 0
 409 4 398 0 386 0 c 0
 371 0 360 4 350 13 c 1
 342 23 337.4 34 337.4 48 c 0
 337.4 145 337.4 242 337.4 339 c 0
 337.4 351 333 363 322 373 c 0
 313 383 302 387.5 288 387.5 c 0
 258 387.5 229 387.5 200 387.5 c 0
 181 387.5 162 387.5 143 387.5 c 1
 143 274.5 143 162 143 48 c 0
 143 34 138 23 129 13 c 0
 119 4 108 0 95 0 c 0
 81 0 70 4 60 13 c 0
 51 23 46 34 46 48 c 0
 46 178 46 307 46 436 c 0
 46 449 51 461 60 470 c 0
 70 479 81 483.602 95 483.602 c 0
EndSplineSet
EndChar

StartChar: n
Encoding: 110 110 58
Width: 490
GlyphClass: 2
Flags: W
HStem: 0 21G<94 107.5 384.5 398> 387.5 96.1016<191.582 334.012>
VStem: 53 96<13.4695 387.5> 344.4 95.5996<13.4695 377.144>
LayerCount: 2
Fore
SplineSet
101 0 m 0
 87 0 76 4 66 13 c 0
 57 23 53 34 53 48 c 0
 53 177 53 306 53 435 c 0
 53 448 57 460 66 469 c 0
 76 478 88 483.602 101 483.602 c 0
 142 483.602 142 479 149 435 c 1
 181 451 210 483.602 246 483.602 c 0
 279 483.602 312.4 483.602 344.4 483.602 c 0
 370.4 483.602 392 474 411 455 c 0
 430 436 440 413.5 440 387.5 c 0
 440 274.5 440 161 440 48 c 0
 440 34 435 23 425 13 c 0
 415 4 404 0 392 0 c 0
 377 0 366 4 356 13 c 1
 348 23 344.4 34 344.4 48 c 0
 344.4 145 344.4 242 344.4 339 c 0
 344.4 351 339 362 328 372 c 0
 319 382 308 387.5 294 387.5 c 0
 246 387.5 197 387.5 149 387.5 c 1
 149 274.5 149 161 149 48 c 0
 149 34 144 23 135 13 c 0
 125 4 114 0 101 0 c 0
EndSplineSet
EndChar

StartChar: o
Encoding: 111 111 59
Width: 464
GlyphClass: 2
Flags: W
HStem: 0 96.0996<149.489 322.04> 387.499 96.1025<143.615 320.939>
VStem: 39 96.1006<110.488 379.14> 330.399 96.1006<104.614 378.039>
LayerCount: 2
Fore
SplineSet
280.8 96.0996 m 2
 294.232 96.0996 305.6 100.75 314.899 110.05 c 0
 325.232 119.35 330.399 131.232 330.399 145.699 c 2
 330.399 339.449 l 2
 330.399 351.85 325.232 362.699 314.899 371.999 c 0
 305.6 382.333 294.232 387.499 280.8 387.499 c 2
 184.7 387.499 l 2
 170.233 387.499 158.351 382.333 149.051 371.999 c 0
 139.751 362.699 135.101 351.85 135.101 339.449 c 2
 135.101 145.699 l 2
 135.101 131.232 139.751 119.35 149.051 110.05 c 0
 158.351 100.75 170.233 96.0996 184.7 96.0996 c 2
 280.8 96.0996 l 2
135.1 0 m 2
 108.233 0 85.5 9.2998 66.9004 27.9004 c 0
 48.2998 46.5 39 69.2334 39 96.0996 c 2
 39 387.5 l 2
 39 413.334 48.2998 436.067 66.9004 455.701 c 0
 85.5 474.302 108.233 483.602 135.1 483.602 c 2
 330.4 483.602 l 2
 356.233 483.602 378.45 474.302 397.05 455.701 c 0
 416.684 436.067 426.5 413.334 426.5 387.5 c 2
 426.5 96.0996 l 2
 426.5 69.2334 416.684 46.5 397.05 27.9004 c 0
 378.45 9.2998 356.233 0 330.4 0 c 2
 135.1 0 l 2
EndSplineSet
EndChar

StartChar: p
Encoding: 112 112 60
Width: 491
GlyphClass: 2
Flags: W
HStem: 0 96<190.343 335.514> 387 96.602<191.582 334.368>
VStem: 53 96<-178.531 -146 -146 48 103.264 387> 344 96<104.632 377.475>
LayerCount: 2
Fore
SplineSet
294 387 m 0
 246 387 197 387 149 387 c 1
 149 307 149 226 149 145 c 0
 149 131 153 119 163 110 c 0
 172 100 184 96 198 96 c 0
 230 96 262 96 294 96 c 0
 308 96 319 100 328 110 c 1
 339 119 344 131 344 145 c 0
 344 210 344 275 344 339 c 0
 344 351 339 362 328 372 c 0
 319 382 308 387 294 387 c 0
344 483.602 m 0
 370 483.602 392 474 411 455 c 0
 430 436 440 413 440 387 c 0
 440 290 440 193 440 96 c 0
 440 69 430 46 411 27 c 0
 392 9 370 0 344 0 c 0
 312 0 279 0 246 0 c 0
 210 0 181 32 149 48 c 1
 149 -33 149 -113.156 149 -194.156 c 1
 149 -194.156 114 -194.156 101 -194.156 c 0
 87 -194.156 76 -189 66 -179 c 0
 57 -169 53 -159 53 -146 c 0
 53 48 53 242 53 435 c 0
 53 448 57 460 66 469 c 0
 76 478 87 483.602 101 483.602 c 0
 142 483.602 142 479 149 435 c 1
 181 451 210 483.602 246 483.602 c 0
 279 483.602 312 483.602 344 483.602 c 0
EndSplineSet
EndChar

StartChar: q
Encoding: 113 113 61
Width: 503
GlyphClass: 2
Flags: W
HStem: 0 96<156.486 302.123> 387.5 96.1016<158.031 300.646>
VStem: 52 96<104.632 377.528> 343.4 95.5996<-178.531 48 103.594 387.5>
LayerCount: 2
Fore
SplineSet
198 387.5 m 0
 184 387.5 173 382 164 372 c 0
 153 362 148 351 148 339 c 0
 148 275 148 210 148 145 c 0
 148 131 153 119 164 110 c 1
 173 100 184 96 198 96 c 0
 230 96 262 96 294 96 c 0
 308 96 320 100 329 110 c 0
 339 119 343.4 131 343.4 145 c 0
 343.4 226 343 307.5 343 387.5 c 1
 295 387.5 246 387.5 198 387.5 c 0
148 483.602 m 0
 181 483.602 213 483.602 246 483.602 c 0
 282 483.602 311.4 451 343.4 435 c 1
 350.4 479 350 483.602 391 483.602 c 0
 405 483.602 416 478 426 469 c 0
 435 460 439 448 439 435 c 0
 439 242 439 48 439 -146 c 0
 439 -159 435 -169 426 -179 c 0
 416 -189 405 -193.75 391 -193.75 c 0
 378 -193.75 343 -193.75 343 -193.75 c 1
 343 -112.75 343.4 -33 343.4 48 c 1
 311.4 32 282 0 246 0 c 0
 213 0 181 0 148 0 c 0
 122 0 100 9 81 27 c 0
 62 46 52 69 52 96 c 0
 52 193 52 289.5 52 387.5 c 0
 52 413.5 62 436 81 455 c 0
 100 474 122 483.602 148 483.602 c 0
EndSplineSet
EndChar

StartChar: r
Encoding: 114 114 62
Width: 355
GlyphClass: 2
Flags: W
HStem: 0 21G<94 107.5> 387.5 96.102<190.53 336.072>
VStem: 53 96<13.4695 378.421>
LayerCount: 2
Fore
SplineSet
101 483.602 m 0
 142 483.602 142 479 149 436 c 1
 182 452 210 483.602 246 483.602 c 2
 295 483.602 l 2
 309 483.602 319 479 328 470 c 0
 339 461 345 449 345 436 c 2
 345 387.5 l 1
 198 387.5 l 2
 184 387.5 174 383 165 373 c 0
 155 364 149 355 149 345 c 1
 149 48 l 2
 149 34 144 23 135 13 c 0
 125 4 114 0 101 0 c 0
 87 0 76 4 66 13 c 0
 57 23 53 34 53 48 c 2
 53 436 l 2
 53 449 57 461 66 470 c 0
 76 479 87 483.602 101 483.602 c 0
EndSplineSet
EndChar

StartChar: s
Encoding: 115 115 63
Width: 449
GlyphClass: 2
Flags: W
HStem: 0 96.1006<58.3876 327.04> 193.75 97.651<140.1 325.938> 387.501 96.1<148.615 423.141>
VStem: 44 96.101<304.24 378.537> 335.399 96.101<104.615 184.29>
LayerCount: 2
Fore
SplineSet
92.0498 0 m 2
 78.6162 0 67.25 4.65137 57.9502 13.9512 c 0
 48.6504 23.251 44 34.6172 44 48.0508 c 2
 44 96.1006 l 1
 285.8 96.1006 l 2
 299.232 96.1006 310.6 100.751 319.899 110.051 c 0
 330.232 119.351 335.399 131.233 335.399 145.7 c 0
 335.399 158.101 330.232 168.95 319.899 178.25 c 0
 310.6 188.584 299.232 193.75 285.8 193.75 c 2
 140.1 193.75 l 2
 113.233 193.75 90.5 203.05 71.9004 221.649 c 0
 53.2998 240.249 44 263.499 44 291.399 c 2
 44 387.499 l 2
 44 413.333 53.2998 436.066 71.9004 455.7 c 0
 90.5 474.301 113.233 483.601 140.1 483.601 c 2
 383.45 483.601 l 2
 395.851 483.601 406.7 478.949 416 469.649 c 0
 426.334 460.351 431.5 448.983 431.5 435.551 c 2
 431.5 387.501 l 1
 188.15 387.501 l 2
 174.717 386.467 163.351 381.301 154.051 372.001 c 0
 144.751 362.7 140.101 351.852 140.101 339.45 c 0
 140.101 324.984 144.751 313.102 154.051 303.802 c 0
 163.351 295.535 175.233 291.401 189.7 291.401 c 1
 140.1 291.401 l 1
 335.4 291.401 l 2
 361.233 291.401 383.45 281.585 402.05 261.951 c 0
 421.684 242.317 431.5 219.584 431.5 193.75 c 2
 431.5 96.0996 l 2
 431.5 69.2334 421.684 46.5 402.05 27.9004 c 0
 383.45 9.2998 361.233 0 335.4 0 c 2
 92.0498 0 l 2
EndSplineSet
EndChar

StartChar: t
Encoding: 116 116 64
Width: 333
GlyphClass: 2
Flags: W
HStem: 0 21G<154.467 167.9> 387.5 96.0996<30.3876 112.1 209.75 299.04>
VStem: 112.1 97.6504<14.3876 387.5 483.6 669.439>
LayerCount: 2
Fore
SplineSet
161.7 0 m 0
 147.233 0 135.35 4.65039 126.05 13.9502 c 0
 116.75 23.25 112.1 34.6162 112.1 48.0498 c 2
 112.1 387.5 l 1
 64.0498 387.5 l 2
 50.6162 387.5 39.25 392.15 29.9502 401.45 c 0
 20.6504 410.75 16 422.116 16 435.55 c 0
 16 448.982 20.6504 460.35 29.9502 469.649 c 0
 39.25 478.949 50.6162 483.6 64.0498 483.6 c 2
 112.1 483.6 l 1
 112.1 629.3 l 2
 112.1 642.732 116.75 654.1 126.05 663.399 c 0
 135.35 673.732 147.232 678.899 161.699 678.899 c 0
 174.1 678.899 184.949 673.732 194.249 663.399 c 0
 204.583 654.1 209.749 642.732 209.749 629.3 c 2
 209.749 483.6 l 1
 307.399 483.6 l 1
 307.399 435.55 l 2
 307.399 422.116 302.232 410.75 291.899 401.45 c 0
 282.6 392.15 271.232 387.5 257.8 387.5 c 2
 209.75 387.5 l 1
 209.75 48.0498 l 2
 209.75 34.6162 204.584 23.25 194.25 13.9502 c 0
 184.95 4.65039 174.101 0 161.7 0 c 0
EndSplineSet
EndChar

StartChar: u
Encoding: 117 117 65
Width: 493
GlyphClass: 2
Flags: W
HStem: -1 97<158.311 302.011>
VStem: 53 96<105.365 469.576> 345 96<103.264 469.576>
LayerCount: 2
Fore
SplineSet
101 483.602 m 0
 114 483.602 125 479 135 470 c 0
 144 461 149 449 149 436 c 2
 149 145 l 2
 149 131 155 119 166 110 c 1
 175 100 185 96 199 96 c 2
 295 96 l 2
 309 96 322 100 331 110 c 0
 341 119 345 131 345 145 c 2
 345 436 l 2
 345 449 348 461 356 470 c 0
 366 479 377 483.602 392 483.602 c 0
 404 483.602 415 479 425 470 c 0
 435 461 441 449 441 436 c 2
 441 48 l 2
 441 35 437 25 428 15 c 0
 418 5 406 -1 392 -1 c 0
 352 -1 353 8 345 48 c 1
 312 32 284 -1 248 -1 c 2
 149 -1 l 2
 123 -1 101 9 82 27 c 0
 63 46 53 69 53 96 c 2
 53 436 l 2
 53 449 57 461 66 470 c 0
 76 479 87 483.602 101 483.602 c 0
EndSplineSet
EndChar

StartChar: v
Encoding: 118 118 66
Width: 449
GlyphClass: 2
Flags: W
HStem: 0.0195312 21G<182.207 300.04>
LayerCount: 2
Fore
SplineSet
74.584 484 m 0
 83.4688 485.237 92.3291 483.795 101.949 479.309 c 0
 114.435 474.268 123.302 464.169 127.751 451.943 c 2
 241.123 141.539 l 1
 354.495 451.943 l 2
 358.945 464.169 367.812 474.268 380.297 479.309 c 0
 386.711 482.3 392.369 483.488 398.28 484 c 0
 404.19 484.512 410.15 483.879 416.264 481.654 c 0
 429.43 476.862 439.37 468.338 444.411 455.853 c 0
 450.734 443.966 450.424 431.33 445.975 419.104 c 2
 292.727 0.0195312 l 1
 189.52 0.0195312 l 1
 36.2715 419.104 l 2
 31.8223 431.33 31.5117 443.966 37.8359 455.853 c 0
 42.877 468.338 52.8174 476.862 65.9834 481.654 c 0
 69.04 482.767 71.6221 483.588 74.584 484 c 0
EndSplineSet
EndChar

StartChar: w
Encoding: 119 119 67
Width: 588
GlyphClass: 2
Flags: W
HStem: 0 21G<140.206 258.018 352.898 470.71>
LayerCount: 2
Fore
SplineSet
32.584 483.98 m 0
 35.7197 484.417 38.8018 484.228 41.9668 483.98 c 0
 44.7793 483.761 47.6807 483.2 50.5674 482.417 c 0
 53.5225 481.682 56.7422 480.785 59.9492 479.289 c 0
 72.4346 474.248 81.3018 464.149 85.751 451.924 c 2
 199.123 141.52 l 1
 253.854 266.619 l 2
 265.575 293.409 288.241 300.24 305.458 300.24 c 0
 322.676 300.24 345.342 293.409 357.062 266.619 c 2
 411.793 141.52 l 1
 525.165 451.924 l 2
 529.615 464.149 538.482 474.248 550.967 479.289 c 0
 554.174 480.785 557.282 481.584 560.35 482.417 c 0
 563.236 483.2 566.138 483.761 568.95 483.98 c 0
 572.114 484.228 575.196 484.417 578.333 483.98 c 0
 581.295 483.568 583.877 482.747 586.934 481.635 c 0
 600.1 476.843 610.04 468.318 615.081 455.833 c 0
 621.404 443.946 621.095 431.311 616.645 419.085 c 2
 463.396 0 l 1
 360.189 0 l 1
 305.458 150.12 l 1
 250.727 0 l 1
 147.52 0 l 1
 -5.72852 419.085 l 2
 -10.1777 431.311 -10.4883 443.946 -4.16406 455.833 c 0
 0.876953 468.318 10.8174 476.843 23.9834 481.635 c 0
 26.7998 482.66 29.8223 483.588 32.584 483.98 c 0
EndSplineSet
EndChar

StartChar: x
Encoding: 120 120 68
Width: 522
GlyphClass: 2
Flags: W
LayerCount: 2
Fore
SplineSet
93.6172 483.98 m 0
 96.6729 484.397 99.8271 484.259 103 483.98 c 0
 117.1 482.747 127.614 476.73 136.621 465.997 c 2
 260.938 317.441 l 1
 386.039 465.997 l 2
 395.045 476.73 405.561 482.747 419.659 483.98 c 0
 432.35 485.091 444.11 480.477 454.844 471.471 c 0
 464.811 463.108 469.387 453.529 471.264 440.195 c 0
 472.497 426.096 469.323 414.181 460.317 403.447 c 2
 325.053 241.6 l 1
 460.317 80.5332 l 2
 469.323 69.7998 472.497 57.8848 471.264 43.7852 c 0
 469.387 30.4521 464.811 20.873 454.844 12.5098 c 0
 444.11 3.50391 432.35 -1.11035 419.659 0 c 0
 405.561 1.2334 395.045 7.25 386.039 17.9834 c 2
 260.938 166.539 l 1
 136.621 17.9834 l 2
 127.614 7.25 117.1 1.2334 103 0 c 0
 90.3105 -1.11035 78.5488 3.50391 67.8154 12.5098 c 0
 57.8496 20.873 53.2734 30.4521 51.3965 43.7852 c 0
 50.1621 57.8848 53.3359 69.7998 62.3428 80.5332 c 2
 198.389 241.6 l 1
 62.3428 403.447 l 2
 53.3359 414.181 50.1621 426.096 51.3965 440.195 c 0
 53.2734 453.529 57.8496 463.108 67.8154 471.471 c 0
 75.8652 478.226 84.4531 482.729 93.6172 483.98 c 0
EndSplineSet
EndChar

StartChar: y
Encoding: 121 121 69
Width: 544
GlyphClass: 2
Flags: W
LayerCount: 2
Fore
SplineSet
48.5342 483.98 m 0
 54.4668 483.986 60.6494 482.492 67.2998 480.071 c 0
 80.1768 476.138 89.9482 467.624 95.4473 455.833 c 2
 254.168 114.936 l 1
 412.888 455.833 l 2
 418.387 467.624 428.159 476.138 441.035 480.071 c 0
 454.336 484.912 465.992 484.788 477.784 479.289 c 0
 490.482 473.368 498.869 464.019 502.804 451.142 c 0
 508.067 438.749 506.738 426.185 501.24 414.394 c 2
 230.711 -165.758 l 2
 224.79 -178.456 216.646 -186.719 203.346 -191.56 c 0
 191.376 -195.916 178.514 -194.354 165.815 -188.432 c 0
 154.024 -182.934 146.842 -175.022 141.577 -162.63 c 0
 136.737 -149.33 137.22 -137.017 143.142 -124.318 c 2
 201 0 l 1
 201 0.782227 l 1
 7.09473 414.394 l 2
 1.59668 426.185 0.267578 438.749 5.53125 451.142 c 0
 9.46582 464.019 18.6348 473.368 31.333 479.289 c 0
 37.2285 482.039 42.6016 483.975 48.5342 483.98 c 0
EndSplineSet
EndChar

StartChar: z
Encoding: 122 122 70
Width: 530
GlyphClass: 2
Flags: W
HStem: 0 96.1748<187.79 464.16> 387.825 96.1748<70.9739 341.825>
LayerCount: 2
Fore
SplineSet
105.689 484 m 0
 430.181 484 l 2
 443.191 484 455.577 478.934 464.585 469.926 c 0
 473.592 460.918 478.659 448.532 478.659 435.521 c 2
 478.659 387.825 l 1
 187.79 96.1748 l 1
 478.659 96.1748 l 1
 478.659 48.4785 l 2
 478.659 34.4668 473.592 23.3008 464.585 13.293 c 0
 455.577 4.28516 443.191 0 430.181 0 c 2
 97.8701 0 l 2
 83.8584 0 72.6934 4.28516 62.6846 13.293 c 0
 53.6777 23.3008 50.1748 34.4668 50.1748 48.4785 c 2
 50.1748 96.1748 l 1
 341.825 387.825 l 1
 57.9932 387.825 l 1
 57.9932 435.521 l 2
 57.9932 448.532 61.4961 460.918 70.5039 469.926 c 0
 80.5127 478.934 91.6777 484 105.689 484 c 0
EndSplineSet
EndChar

StartChar: quoteleft
Encoding: 8216 8216 71
Width: 289
GlyphClass: 2
Flags: MW
HStem: 387.5 96.1
VStem: 96.1 97.65
LayerCount: 2
Fore
SplineSet
145.7 387.5 m 0
 131.233 387.5 119.35 392.15 110.05 401.45 c 0
 100.75 410.75 96.0996 422.116 96.0996 435.55 c 2
 96.0996 483.6 l 1
 145.7 581.25 l 1
 193.75 581.25 l 1
 145.7 483.6 l 1
 193.75 483.6 l 1
 193.75 435.55 l 2
 193.75 422.116 188.584 410.75 178.25 401.45 c 0
 168.95 392.15 158.101 387.5 145.7 387.5 c 0
EndSplineSet
EndChar

StartChar: quoteright
Encoding: 8217 8217 72
Width: 289
GlyphClass: 2
Flags: MW
HStem: 483.6 97.65
VStem: 96.1 97.65
LayerCount: 2
Fore
SplineSet
96.0996 387.5 m 1
 145.701 483.6 l 1
 96.1006 483.6 l 1
 96.1006 533.199 l 2
 96.1006 545.6 100.751 556.449 110.051 565.749 c 0
 119.351 576.083 131.233 581.249 145.7 581.249 c 0
 158.101 581.249 168.95 576.083 178.25 565.749 c 0
 188.584 556.449 193.75 545.6 193.75 533.199 c 2
 193.75 483.6 l 1
 145.7 387.5 l 1
 96.0996 387.5 l 1
EndSplineSet
EndChar

StartChar: quotedblleft
Encoding: 8220 8220 73
Width: 483
GlyphClass: 2
Flags: MW
HStem: 387.5 96.1
VStem: 96.1 97.65 291.4 96.1
LayerCount: 2
Fore
SplineSet
145.7 387.5 m 0
 131.233 387.5 119.35 392.15 110.05 401.45 c 0
 100.75 410.75 96.0996 422.116 96.0996 435.55 c 2
 96.0996 483.6 l 1
 145.7 581.25 l 1
 193.75 581.25 l 1
 145.7 483.6 l 1
 193.75 483.6 l 1
 193.75 435.55 l 2
 193.75 422.116 188.584 410.75 178.25 401.45 c 0
 168.95 392.15 158.101 387.5 145.7 387.5 c 0
339.449 387.5 m 0
 324.982 387.5 313.099 392.15 303.799 401.45 c 0
 295.533 410.75 291.399 422.116 291.399 435.55 c 2
 291.399 483.6 l 1
 339.449 581.25 l 1
 387.499 581.25 l 1
 339.449 483.6 l 1
 387.499 483.6 l 1
 387.499 435.55 l 2
 387.499 422.116 382.333 410.75 371.999 401.45 c 0
 362.699 392.15 351.85 387.5 339.449 387.5 c 0
EndSplineSet
EndChar

StartChar: quotedblright
Encoding: 8221 8221 74
Width: 483
GlyphClass: 2
Flags: MW
HStem: 483.6 97.65
VStem: 96.1 97.65 291.4 96.1
LayerCount: 2
Fore
SplineSet
96.0996 387.5 m 1
 145.701 483.6 l 1
 96.1006 483.6 l 1
 96.1006 533.199 l 2
 96.1006 545.6 100.751 556.449 110.051 565.749 c 0
 119.351 576.083 131.233 581.249 145.7 581.249 c 0
 158.101 581.249 168.95 576.083 178.25 565.749 c 0
 188.584 556.449 193.75 545.6 193.75 533.199 c 2
 193.75 483.6 l 1
 145.7 387.5 l 1
 96.0996 387.5 l 1
291.401 387.5 m 1
 339.452 483.6 l 1
 291.402 483.6 l 1
 291.402 533.199 l 2
 291.402 545.6 295.536 556.449 303.802 565.749 c 0
 313.102 576.083 324.984 581.249 339.451 581.249 c 0
 351.852 581.249 362.701 576.083 372.001 565.749 c 0
 382.335 556.449 387.501 545.6 387.501 533.199 c 2
 387.501 483.6 l 1
 339.451 387.5 l 1
 291.401 387.5 l 1
EndSplineSet
EndChar

StartChar: asciitilde
Encoding: 126 126 75
Width: 462
VWidth: 0
Flags: W
HStem: 227.225 66.4004<340.484 385.625>
LayerCount: 2
Fore
SplineSet
161.094 338.312 m 0
 245.138 417.247 311.23 382.104 334.781 363.906 c 0
 373.157 334.253 385.625 293.625 385.625 293.625 c 1
 387.504 288.876 389.028 280.876 389.028 275.769 c 0
 389.028 248.972 367.281 227.225 340.484 227.225 c 0
 321.342 227.225 300.769 241.922 294.562 260.031 c 0
 252.97 343.83 233.17 229.666 134.531 219.188 c 0
 102.66 215.802 73.7607 227.566 54.5625 242.188 c 0
 16.166 271.43 3.21875 311.688 3.21875 311.688 c 1
 1.30176 316.479 -0.254883 324.559 -0.254883 329.72 c 0
 -0.254883 356.516 21.4932 378.264 48.2891 378.264 c 0
 67.0156 378.264 87.4375 363.991 93.875 346.406 c 0
 111.409 311.749 123.954 303.431 161.094 338.312 c 0
EndSplineSet
EndChar

StartChar: three
Encoding: 51 51 76
Width: 500
VWidth: 0
Flags: W
HStem: 0.783203 96.2861<69.3329 329.851> 292.772 96.2861<119.421 336.17> 583.195 97.0693<62.0842 336.17>
VStem: 345.206 96.2861<111.597 146.387 146.387 283.736 397.809 574.16>
LayerCount: 2
Fore
SplineSet
54 680.265 m 0
 151.068 680.265 248.138 680.265 345.206 680.265 c 0
 371.259 680.265 393.49 671.341 412.528 651.301 c 0
 431.566 631.261 441.492 609.248 441.492 583.196 c 0
 441.492 518.483 441.492 453.771 441.492 389.059 c 0
 441.492 375.03 438.531 359.273 427.401 354.614 c 0
 416.182 349.918 404.961 345.221 393.74 340.523 c 1
 404.7 335.305 415.659 330.087 426.619 324.867 c 0
 438.79 319.072 441.492 304.796 441.492 292.772 c 0
 441.492 227.538 441.492 162.304 441.492 97.0693 c 0
 441.492 70.0156 431.816 46.9629 412.528 28.1816 c 0
 393.74 9.88867 371.258 -0.0830078 345.206 0 c 0
 264.055 0.260742 182.903 0.523438 101.752 0.783203 c 0
 89.7275 0.822266 78.6436 4.80957 68.874 14.0908 c 0
 58.6035 23.8477 54 35.29 54 49.3174 c 0
 54 62.3438 58.6035 73.2217 68.874 82.9785 c 0
 78.6436 92.2598 89.7275 97.0693 101.752 97.0693 c 0
 166.203 97.0693 230.654 97.0693 295.106 97.0693 c 0
 309.135 97.0693 320.063 101.403 330.333 111.16 c 0
 340.103 120.441 345.206 132.358 345.206 146.387 c 0
 345.206 178.481 345.206 210.577 345.206 242.672 c 0
 345.206 256.7 340.353 267.879 330.333 277.898 c 0
 320.313 287.919 309.135 292.772 295.106 292.772 c 0
 247.354 292.772 199.604 292.772 151.852 292.772 c 0
 139.827 292.772 128.497 295.943 118.974 304.515 c 0
 108.457 313.979 104.1 325.494 104.1 340.523 c 0
 104.1 352.548 108.954 364.165 118.974 374.185 c 0
 128.993 384.205 139.827 389.059 151.852 389.059 c 0
 199.604 389.059 247.354 389.059 295.106 389.059 c 0
 309.135 389.059 320.313 394.131 330.333 403.148 c 0
 340.353 412.167 345.206 423.784 345.206 436.81 c 0
 345.206 469.688 345.206 502.566 345.206 535.444 c 0
 345.206 547.469 340.353 558.303 330.333 568.322 c 0
 320.313 578.343 309.135 583.195 295.106 583.195 c 0
 230.654 583.195 166.203 583.195 101.752 583.195 c 0
 89.7275 583.195 79.1436 587.53 68.874 597.286 c 0
 59.1035 606.568 54 617.702 54 631.73 c 0
 54 647.908 54 664.086 54 680.265 c 0
EndSplineSet
EndChar

StartChar: four
Encoding: 52 52 77
Width: 544
VWidth: 0
Flags: W
HStem: 0 21G<347.898 402.651> 195.697 96.2852<149.032 306.378 402.664 490.697>
VStem: 306.378 96.2734<16.1207 195.697 291.982 517.433>
LayerCount: 2
Fore
SplineSet
336.125 691.217 m 0
 354.147 691.217 370.62 686.723 381.643 677.075 c 0
 392.664 667.428 402.174 649.337 402.664 631.724 c 0
 402.664 550.572 402.664 469.42 402.664 388.269 c 0
 402.664 356.174 402.664 324.078 402.664 291.982 c 1
 420.669 291.982 438.674 291.982 456.678 291.982 c 0
 469.704 291.982 482.104 287.693 491.122 278.675 c 0
 501.142 268.655 505.995 257.477 505.995 243.448 c 0
 505.995 227.531 505.995 211.614 505.995 195.697 c 1
 471.552 195.697 437.107 195.697 402.664 195.697 c 1
 402.66 146.641 402.655 97.584 402.651 48.5283 c 0
 402.651 32.3516 402.651 16.1758 402.651 0 c 1
 386.738 0 370.825 0 354.912 0 c 0
 340.884 0 329.706 5.62988 319.686 15.6504 c 0
 310.668 25.6699 306.378 36.5039 306.378 48.5283 c 0
 306.378 97.584 306.378 146.641 306.378 195.697 c 1
 219.723 195.697 133.068 195.697 46.4131 195.697 c 0
 34.0615 195.697 23 205.16 23 217.796 c 0
 23 234.831 23 251.867 23 268.902 c 0
 23 275.478 27.0762 286.621 30.8281 291.982 c 0
 119.027 418.014 207.223 544.048 295.419 670.081 c 0
 304.921 683.659 318.351 691.217 336.125 691.217 c 0
306.378 517.433 m 1
 253.93 442.283 201.481 367.133 149.032 291.982 c 1
 201.481 291.982 253.93 291.982 306.378 291.982 c 1
 306.378 324.078 306.378 356.174 306.378 388.269 c 0
 306.378 431.323 306.378 474.378 306.378 517.433 c 1
EndSplineSet
EndChar

StartChar: five
Encoding: 53 53 78
Width: 507
VWidth: 0
Flags: W
HStem: 0 96.1924<75.4919 110.091 303.477 345.075> 291.582 96.1924<303.477 343.526> 582.162 97.1943<401.673 440.51>
VStem: 353.577 96.1914<104.841 145.29 241.482 281.531>
LayerCount: 2
Fore
SplineSet
110.091 0 m 0
 191.253 0 272.415 0 353.577 0 c 0
 379.629 0 401.673 9.01758 420.711 27.0537 c 0
 439.749 46.0918 449.769 69.1377 449.769 96.1924 c 0
 449.769 161.322 449.769 226.452 449.769 291.582 c 0
 449.769 317.634 439.749 339.678 420.711 358.716 c 0
 401.673 377.754 379.629 387.774 353.577 387.774 c 0
 304.815 387.771 256.054 387.77 207.292 387.767 c 2
 158.194 387.767 l 1
 158.194 435.87 l 2
 158.194 468.602 158.194 501.334 158.194 534.066 c 0
 158.194 550.096 158.194 566.125 158.194 582.154 c 1
 174.558 582.154 190.921 582.154 207.285 582.154 c 0
 288.375 582.154 369.466 582.162 450.556 582.162 c 1
 450.556 582.162 449.779 616.23 449.779 630.258 c 0
 449.779 643.284 444.759 655.309 433.737 664.326 c 1
 424.719 674.346 413.697 679.356 401.673 679.356 c 0
 320.511 679.354 239.349 679.352 158.188 679.349 c 0
 125.791 679.349 93.3955 679.349 61 679.349 c 1
 61 646.953 61 614.558 61 582.162 c 0
 61 517.366 61 452.57 61 387.774 c 2
 61 291.574 l 1
 141.826 291.577 222.651 291.579 303.477 291.582 c 0
 317.505 291.582 328.527 286.572 337.545 275.55 c 1
 348.567 266.532 353.577 255.51 353.577 241.482 c 0
 353.577 209.418 353.577 177.354 353.577 145.29 c 0
 353.577 131.262 348.567 119.238 337.545 110.22 c 1
 328.527 100.2 317.505 96.1924 303.477 96.1924 c 0
 222.844 96.1924 62.0049 96.1924 62.0049 96.1924 c 1
 62.0049 96.1924 62.0049 61.1221 62.0049 48.0957 c 0
 62.0049 34.0684 66.0029 23.0459 75.0215 13.0264 c 0
 85.041 4.00781 96.0625 0 110.091 0 c 0
EndSplineSet
EndChar

StartChar: six
Encoding: 54 54 79
Width: 527
VWidth: 0
Flags: W
HStem: 0.892578 96.2852<162.976 368.424> 292.881 96.2861<155.503 358.599> 583.305 97.0684<161.733 438.471>
VStem: 60 95.5029<117.978 292.881 389.167 574.26> 375.474 97.0684<104.035 141.016 141.016 279.919>
LayerCount: 2
Fore
SplineSet
155.503 680.373 m 1
 231.697 680.373 307.891 680.373 384.084 680.373 c 0
 407.818 683.152 433.57 672.968 443.578 649.844 c 0
 450.334 628.325 446.284 605.574 447.492 583.305 c 1
 369.732 583.305 291.974 583.305 214.214 583.305 c 0
 188.184 583.305 156.42 570.641 156.286 544.164 c 0
 156.025 492.498 155.764 440.833 155.503 389.167 c 1
 155.503 389.167 287.137 389.167 365.297 389.167 c 0
 416.596 394.893 466.853 353.68 471.76 302.275 c 0
 472.021 237.562 472.281 172.85 472.542 108.138 c 0
 474.515 64.3369 449.876 21.626 408.352 6.37207 c 0
 392.894 0.693359 374.5 0.0595703 359.817 0.109375 c 0
 308.412 0.370117 257.008 0.630859 205.604 0.892578 c 0
 189.144 0.948242 170.725 0.90625 155.503 0.109375 c 0
 105.598 -2.50488 60.0107 42.1387 60 92.4814 c 0
 60 254.002 60 415.521 60 577.042 c 0
 65.0859 634.562 93.333 680.373 155.503 680.373 c 1
324.591 292.881 m 1
 155.503 292.881 l 1
 155.503 245.912 155.503 198.943 155.503 151.975 c 0
 155.848 140.287 153.793 126.998 162.549 117.531 c 0
 171.634 107.708 182.717 97.2432 196.992 97.1777 c 0
 251.275 96.9297 280.509 96.2373 334.768 97.1777 c 0
 357.479 97.5723 375.249 120.15 375.474 141.016 c 0
 375.852 176.241 375.878 211.47 376.256 246.695 c 0
 376.379 258.104 367.9 271.089 359.034 280.356 c 0
 349.996 289.803 324.591 292.881 324.591 292.881 c 1
EndSplineSet
EndChar

StartChar: seven
Encoding: 55 55 80
Width: 472
VWidth: 0
Flags: W
HStem: 582.259 97.0684<18.5144 319.211>
LayerCount: 2
Fore
SplineSet
57.752 679.327 m 1
 163.432 679.327 269.111 679.327 374.791 679.327 c 0
 387.816 679.327 399.216 675.05 408.451 665.236 c 0
 415.248 658.016 420.193 648.771 420.193 634.707 c 0
 420.193 617.224 420.193 599.741 420.193 582.259 c 1
 353.654 399.08 287.115 215.902 220.576 32.7236 c 0
 216.121 20.4834 209.434 10.7148 197.875 5.3252 c 0
 185.032 -0.664062 171.916 -1.82031 158.734 2.97754 c 0
 143.861 8.45703 128.987 13.9365 114.114 19.416 c 1
 182.479 207.03 250.846 394.645 319.211 582.259 c 1
 317.646 582.259 316.08 582.259 314.514 582.259 c 0
 213.01 582.259 111.505 582.259 10 582.259 c 1
 10 599.22 10 616.181 10 633.142 c 0
 10 645.207 16.1055 655.981 24.873 665.236 c 0
 34.1416 675.02 44.7256 679.327 57.752 679.327 c 1
EndSplineSet
EndChar

StartChar: eight
Encoding: 56 56 81
Width: 545
VWidth: 0
Flags: W
HStem: 0 97.0684<172.641 374.426> 292.771 96.2861<166.322 380.745> 583.195 97.0684<166.322 380.745>
VStem: 61 96.2861<111.596 283.735 397.808 574.159> 389.781 96.2861<111.596 146.386 146.386 283.735 397.808 574.159>
LayerCount: 2
Fore
SplineSet
389.781 680.264 m 1
 447.859 680.264 486.067 637.578 486.067 583.195 c 0
 486.067 518.482 486.067 453.771 486.067 389.058 c 0
 486.067 356.853 465 351.693 438.315 340.523 c 1
 467.319 331.133 486.067 320.91 486.067 292.771 c 0
 486.067 227.537 486.067 162.303 486.067 97.0684 c 0
 486.067 38.4932 444.935 0 389.781 0 c 0
 312.283 0 234.784 0 157.286 0 c 0
 98.6436 0 61 41.8965 61 97.0684 c 0
 61 162.303 61 227.537 61 292.771 c 0
 61 322.707 84.3486 328.902 108.752 340.523 c 1
 77.2236 349.156 61 359.012 61 389.058 c 0
 61 453.771 61 518.482 61 583.195 c 0
 61 641.019 102.409 680.264 157.286 680.264 c 0
 234.784 680.264 312.283 680.264 389.781 680.264 c 1
339.682 583.195 m 1
 295.583 583.195 251.484 583.195 207.386 583.195 c 0
 193.358 583.195 182.18 578.342 172.159 568.322 c 0
 162.14 558.302 157.286 547.468 157.286 535.443 c 0
 157.286 502.565 157.286 469.688 157.286 436.81 c 0
 157.286 423.783 162.14 412.166 172.159 403.148 c 0
 182.18 394.13 193.358 389.058 207.386 389.058 c 0
 251.484 389.058 295.583 389.058 339.682 389.058 c 0
 353.709 389.058 364.888 394.13 374.908 403.148 c 0
 384.928 412.166 389.781 423.783 389.781 436.81 c 0
 389.781 469.688 389.781 502.565 389.781 535.443 c 0
 389.781 547.468 384.928 558.302 374.908 568.322 c 0
 364.888 578.342 353.709 583.195 339.682 583.195 c 1
339.682 292.771 m 0
 295.583 292.771 251.484 292.771 207.386 292.771 c 0
 193.358 292.771 182.18 287.918 172.159 277.898 c 0
 162.14 267.879 157.286 256.7 157.286 242.672 c 0
 157.286 210.576 157.286 178.481 157.286 146.386 c 0
 157.286 132.357 162.39 120.44 172.159 111.159 c 0
 182.43 101.403 193.358 97.0684 207.386 97.0684 c 0
 251.484 97.0684 295.583 97.0684 339.682 97.0684 c 0
 353.709 97.0684 364.638 101.403 374.908 111.159 c 0
 384.678 120.44 389.781 132.357 389.781 146.386 c 0
 389.781 178.481 389.781 210.576 389.781 242.672 c 0
 389.781 256.7 384.928 267.879 374.908 277.898 c 0
 364.888 287.918 353.709 292.771 339.682 292.771 c 0
EndSplineSet
EndChar

StartChar: nine
Encoding: 57 57 82
Width: 530
VWidth: 0
Flags: W
HStem: 0 97.0625<103.766 367.389> 292.781 96.2812<164.122 374.25> 582.406 97.8438<158.026 366.191>
VStem: 58.7812 95.5<397.713 578.742> 374.25 96.2812<106.53 292.781 389.062 577.019>
LayerCount: 2
Fore
SplineSet
376.594 680.312 m 0
 425.717 680.466 470.189 637.355 470.531 587.906 c 0
 470.531 427.951 470.531 267.986 470.531 108.031 c 0
 470.543 56.6143 437.463 0.870117 384.438 0.78125 c 0
 309.026 0.520508 233.599 0.260742 158.188 0 c 0
 135.976 -0.0371094 111.539 5.71289 101.062 26.625 c 0
 95.3584 38.0107 95.4609 50.0479 95.5625 62.625 c 0
 95.5625 74.1064 95.5625 85.5811 95.5625 97.0625 c 1
 168.886 97.0625 242.208 97.0625 315.531 97.0625 c 0
 341.712 97.0625 373.335 110.643 373.469 137 c 0
 373.729 188.927 373.989 240.854 374.25 292.781 c 1
 304.58 292.781 234.92 292.781 165.25 292.781 c 0
 113.763 290.942 58.9014 328.018 58.7812 379.656 c 0
 58.5205 445.935 58.2607 512.222 58 578.5 c 0
 57.8652 636.174 91.916 680.25 154.281 680.25 c 0
 227.604 680.25 300.927 680.25 374.25 680.25 c 0
 375.032 680.274 375.814 680.311 376.594 680.312 c 0
193.438 582.406 m 0
 169.058 582.406 155.222 565.718 155.062 545.625 c 0
 154.802 512.75 154.542 479.875 154.281 447 c 0
 154.062 419.49 171.435 389.062 198.906 389.062 c 0
 257.356 389.062 315.8 389.062 374.25 389.062 c 1
 374.25 434.205 374.25 479.357 374.25 524.5 c 0
 374.25 550.533 362.745 582.406 335.125 582.406 c 0
 287.896 582.406 240.667 582.406 193.438 582.406 c 0
EndSplineSet
EndChar
